<?xml version="1.0" encoding="UTF-8" standalone="no"?>
<svg width="191px" height="40px" viewBox="0 0 191 40" version="1.1" xmlns="http://www.w3.org/2000/svg" xmlns:xlink="http://www.w3.org/1999/xlink" xmlns:sketch="http://www.bohemiancoding.com/sketch/ns">
    <!-- Generator: Sketch 3.3.3 (12072) - http://www.bohemiancoding.com/sketch -->
    <title>android</title>
    <desc>Created with Sketch.</desc>
    <defs></defs>
    <g id="Page-1" stroke="none" stroke-width="1" fill="none" fill-rule="evenodd" sketch:type="MSPage">
        <g id="Logos" sketch:type="MSArtboardGroup" transform="translate(-357.000000, -527.000000)" fill="#000000">
            <g id="android" sketch:type="MSLayerGroup" transform="translate(357.000000, 527.000000)">
                <path d="M94.8566372,0.566371681 C95.7451327,0.47079646 96.8460177,0.0814159292 97.5929204,0.757522124 C97.7274336,1.67787611 97.6707965,2.61238938 97.6778761,3.53982301 C97.6530973,15.3380531 97.6955752,27.1362832 97.6566372,38.9345133 C96.7433628,39.2424779 95.7876106,39.2566372 94.8637168,38.9911504 C94.8707965,37.040708 94.8743363,35.0902655 94.860177,33.139823 C92.6584071,36.0637168 89.5362832,38.3469027 85.9575221,39.2283186 C81.5787611,40.3079646 76.700885,39.3840708 73.1292035,36.5911504 C70.7469027,34.9061947 69.0053097,32.4247788 67.9362832,29.7309735 C66.2831858,25.3309735 66.7539823,20.1557522 69.3026549,16.1876106 C71.419469,12.9309735 74.7221239,10.3681416 78.5486726,9.50088496 C82.5734513,8.58761062 87.0265487,9.12566372 90.5026549,11.4336283 C92.2123894,12.4849558 93.5823009,13.9752212 94.8707965,15.4938053 C94.8530973,10.5168142 94.8849558,5.53982301 94.8566372,0.566371681 L94.8566372,0.566371681 Z M79.440708,12.2442478 C73.4477876,13.5787611 69.0159292,19.8123894 69.9469027,25.9150442 C70.4920354,30.1628319 73.4088496,33.8584071 77.1858407,35.7557522 C80.3823009,37.0088496 84.1876106,37.2530973 87.2884956,35.5893805 C92.3929204,33.5504425 95.5539823,27.6778761 94.520354,22.2973451 C93.9185841,18.5628319 91.5044248,15.1716814 88.1522124,13.4123894 C85.5362832,11.9185841 82.3575221,11.6318584 79.440708,12.2442478 L79.440708,12.2442478 Z" id="Shape" sketch:type="MSShapeGroup"></path>
                <path d="M187.709735,0.746902655 C188.463717,0.014159292 189.568142,0.410619469 190.456637,0.62300885 C190.435398,13.4159292 190.449558,26.2053097 190.449558,38.9982301 C189.518584,39.2778761 188.559292,39.2460177 187.660177,38.8849558 C187.642478,36.9876106 187.663717,35.0867257 187.628319,33.1893805 C184.980531,36.7610619 180.828319,39.4548673 176.304425,39.6424779 C173.309735,39.8300885 170.300885,39.0619469 167.649558,37.6884956 C163.837168,35.5858407 160.99469,31.7769912 160.148673,27.4938053 C159.376991,23.6884956 160.021239,19.5716814 162.106195,16.279646 C164.290265,12.7327434 167.975221,10.1274336 172.074336,9.34159292 C176.049558,8.6619469 180.371681,9.28495575 183.702655,11.6637168 C185.231858,12.6654867 186.481416,14.0176991 187.631858,15.4230088 C187.716814,10.5309735 187.553982,5.63185841 187.709735,0.746902655 L187.709735,0.746902655 Z M172.19823,12.2584071 C168.853097,13.0973451 165.854867,15.3451327 164.230088,18.4070796 C162.757522,20.9274336 162.456637,23.9823009 162.959292,26.8176991 C163.755752,30.9309735 166.849558,34.4743363 170.761062,35.939823 C173.295575,36.8318584 176.116814,37.0654867 178.718584,36.3079646 C181.330973,35.3380531 183.780531,33.7061947 185.338053,31.3522124 C187.313274,28.559292 188.035398,24.9061947 187.224779,21.5787611 C186.417699,17.8548673 183.720354,14.640708 180.283186,13.0371681 C177.780531,11.8619469 174.881416,11.6849558 172.19823,12.2584071 L172.19823,12.2584071 Z" id="Shape" sketch:type="MSShapeGroup"></path>
                <path d="M152.707965,0.849557522 C154.226549,0.378761062 155.755752,2.34336283 154.824779,3.68141593 C154.219469,4.80353982 152.495575,5.05132743 151.699115,4 C150.711504,2.99469027 151.338053,1.12566372 152.707965,0.849557522 L152.707965,0.849557522 Z" id="Shape" sketch:type="MSShapeGroup"></path>
                <path d="M12.8283186,9.28495575 C16.1026549,8.82123894 19.5681416,9.12212389 22.5274336,10.6867257 C24.7964602,11.780531 26.6477876,13.5362832 28.2300885,15.4654867 C28.2831858,13.4690265 28.2088496,11.4725664 28.3150442,9.47964602 C29.1716814,9.45486726 30.0318584,9.45840708 30.8920354,9.48318584 C31.019469,19.3132743 30.959292,29.1539823 30.920354,38.9876106 C30.0424779,39.2106195 29.1362832,39.2530973 28.2584071,39.0017699 C28.2548673,37.0619469 28.2654867,35.1256637 28.240708,33.1858407 C25.7982301,36.1097345 22.6053097,38.6831858 18.7646018,39.3628319 C15.3911504,40.0778761 11.8230088,39.5079646 8.73274336,38.0283186 C4.31150442,35.8477876 1.08318584,31.440708 0.361061947,26.5628319 C0.0283185841,23.7238938 0.283185841,20.7681416 1.52212389,18.1628319 C3.49734513,13.5575221 7.89734513,10.1274336 12.8283186,9.28495575 L12.8283186,9.28495575 Z M12.8920354,12.1911504 C8.50265487,13.1221239 4.76814159,16.6053097 3.55752212,20.9309735 C2.03539823,25.9469027 4.20176991,31.7451327 8.57345133,34.6088496 C11.5079646,36.6230088 15.3486726,37.2353982 18.7929204,36.3893805 C22.7327434,35.1362832 26.1451327,32.0424779 27.3380531,28.0247788 C29.0548673,23.1256637 27.0088496,17.3522124 22.8389381,14.3539823 C20.0530973,12.1946903 16.3150442,11.5079646 12.8920354,12.1911504 L12.8920354,12.1911504 Z" id="Shape" sketch:type="MSShapeGroup"></path>
                <path d="M41.5044248,12.1132743 C46.2654867,8.06371681 53.9362832,8.05663717 58.700885,12.1026549 C61.8371681,14.640708 63.7486726,18.6230088 63.7238938,22.6619469 C63.7061947,28.0955752 63.7274336,33.5292035 63.7132743,38.9628319 C62.7823009,39.2566372 61.8159292,39.2424779 60.8849558,38.9699115 C60.8637168,33.2920354 60.9309735,27.6070796 60.8530973,21.9292035 C60.580531,16.4106195 55.440708,11.6884956 49.9079646,11.9504425 C44.3646018,11.8938053 39.4513274,16.7823009 39.3238938,22.2973451 C39.2495575,27.8619469 39.3097345,33.4265487 39.2955752,38.9911504 C38.3646018,39.2283186 37.4053097,39.2566372 36.4778761,38.980531 C36.4707965,33.6566372 36.4884956,28.3327434 36.4707965,23.0053097 C36.3858407,18.8637168 38.2725664,14.7185841 41.5044248,12.1132743 L41.5044248,12.1132743 Z" id="Shape" sketch:type="MSShapeGroup"></path>
                <path d="M102.59823,21.939823 C102.665487,14.9876106 109.058407,8.67610619 116.081416,9.11858407 C116.116814,9.95044248 116.233628,10.8 116.038938,11.6212389 C115.376991,12.1486726 114.431858,11.9504425 113.656637,12.1628319 C110.509735,12.7964602 107.773451,15.0442478 106.421239,17.9433628 C105.040708,20.5946903 105.373451,23.6778761 105.327434,26.5628319 C105.277876,30.6477876 105.423009,34.7433628 105.260177,38.8247788 C104.488496,39.4477876 103.476106,39.1823009 102.60177,38.9911504 C102.59823,33.3061947 102.60177,27.6247788 102.59823,21.939823 L102.59823,21.939823 Z" id="Shape" sketch:type="MSShapeGroup"></path>
                <path d="M127.929204,9.36283186 C131.546903,8.72566372 135.444248,9.14336283 138.647788,11.0265487 C142.534513,13.2176991 145.362832,17.1823009 146.152212,21.5752212 C146.545133,24.460177 146.414159,27.500885 145.228319,30.1982301 C143.146903,35.2353982 138.226549,39.0159292 132.789381,39.5858407 C129.150442,39.9610619 125.362832,39.0442478 122.371681,36.920354 C119.065487,34.7115044 116.810619,31.1185841 116.024779,27.2424779 C115.20354,23.5469027 116.077876,19.6141593 117.975221,16.3823009 C120.145133,12.8176991 123.819469,10.1663717 127.929204,9.36283186 L127.929204,9.36283186 Z M128.304425,12.2265487 C122.233628,13.5150442 117.762832,19.8761062 118.764602,26.0247788 C119.231858,29.1823009 120.899115,32.1380531 123.440708,34.0849558 C126.332743,36.6053097 130.530973,37.2707965 134.19115,36.3858407 C136.446018,35.6035398 138.669027,34.4778761 140.265487,32.6477876 C142.449558,30.2619469 143.653097,26.9876106 143.500885,23.7522124 C143.292035,19.5044248 140.764602,15.4336283 136.987611,13.4442478 C134.389381,11.9256637 131.217699,11.6353982 128.304425,12.2265487 L128.304425,12.2265487 Z" id="Shape" sketch:type="MSShapeGroup"></path>
                <path d="M151.617699,10.3115044 C152.428319,9.46548673 153.716814,9.90088496 154.704425,10.1451327 C154.658407,19.3982301 154.725664,28.6548673 154.672566,37.9079646 C154.580531,39.1327434 152.948673,38.4955752 152.141593,38.679646 C151.99646,38.5628319 151.702655,38.3256637 151.553982,38.2088496 C151.59646,28.9132743 151.469027,19.6070796 151.617699,10.3115044 L151.617699,10.3115044 Z" id="Shape" sketch:type="MSShapeGroup"></path>
            </g>
        </g>
    </g>
</svg>