<?xml version="1.0" encoding="UTF-8" standalone="no"?>
<svg width="63px" height="40px" viewBox="0 0 63 40" version="1.1" xmlns="http://www.w3.org/2000/svg" xmlns:xlink="http://www.w3.org/1999/xlink" xmlns:sketch="http://www.bohemiancoding.com/sketch/ns">
    <!-- Generator: Sketch 3.3.3 (12072) - http://www.bohemiancoding.com/sketch -->
    <title>ios</title>
    <desc>Created with Sketch.</desc>
    <defs></defs>
    <g id="Page-1" stroke="none" stroke-width="1" fill="none" fill-rule="evenodd" sketch:type="MSPage">
        <g id="Logos" sketch:type="MSArtboardGroup" transform="translate(-40.000000, -527.000000)" fill="#000000">
            <g id="ios" sketch:type="MSLayerGroup" transform="translate(40.000000, 527.000000)">
                <path d="M20.845,0.35 C22.305,0.1375 23.785,0.2825 25.255,0.2375 C27.2575,0.17 29.17,0.9275 30.925,1.8175 C32.8625,2.775 34.345,4.3975 35.78,5.9675 C38.195,9.1225 39.3825,13.08 39.725,16.9975 C39.74,18.3 40.0925,19.5925 39.9025,20.895 C39.7125,22.3225 39.76,23.7775 39.44,25.1875 C38.71,28.3925 37.4775,31.5525 35.3425,34.0925 C33.1525,37.03 29.815,39.1 26.1925,39.68 C25.05,39.8225 23.8975,39.74 22.75,39.7625 C18.88,39.93 15.2575,37.825 12.675,35.075 C8.99,31.1 7.5125,25.565 7.48,20.25 C7.415,15.1875 8.7125,9.93 11.93,5.935 C14.0675,3.05 17.36,1.11 20.845,0.35 L20.845,0.35 Z M21.3475,1.855 C17.7625,2.5225 14.515,4.7075 12.4675,7.715 C10.2825,10.7925 9.41,14.565 9.035,18.26 C8.7675,22.3175 9.475,26.4325 11.0875,30.1675 C12.7125,33.6025 15.59,36.575 19.275,37.7325 C21.1825,38.445 23.25,38.2725 25.245,38.225 C27.5525,37.955 29.805,37.0775 31.64,35.6425 C35.6375,32.7175 37.7075,27.805 38.22,22.99 C38.2825,21.0775 38.26,19.16 38.235,17.2475 C37.8675,13.1175 36.475,8.9475 33.685,5.815 C32.1525,4.245 30.2375,3.045 28.1625,2.3325 C25.995,1.5125 23.6125,1.68 21.3475,1.855 L21.3475,1.855 Z" id="Shape" sketch:type="MSShapeGroup"></path>
                <path d="M46.305,3.5575 C48.1425,1.5875 50.745,0.1425 53.495,0.235 C54.9825,0.2725 56.51,0.0975 57.9575,0.5325 C59.015,0.8425 60.0125,1.3175 60.975,1.85 C60.86,2.32 60.6825,2.765 60.4675,3.1925 C58.33,2.1025 55.96,1.3 53.5275,1.5325 C51.6725,1.7875 49.775,2.335 48.325,3.5725 C46.42,5.09 45.3,7.57 45.4875,10.0075 C45.6225,12.045 46.695,13.9475 48.27,15.2275 C51.5675,17.9425 56,18.735 59.3025,21.445 C60.615,22.655 61.9925,23.955 62.535,25.7125 C63.4125,28.65 63.175,31.9625 61.6575,34.655 C59.605,37.8525 55.86,40.0725 51.9975,39.765 C48.8975,39.95 45.6375,39.1975 43.18,37.235 C43.33,36.7875 43.535,36.365 43.79,35.9675 C44.915,36.4875 45.9175,37.2525 47.1,37.655 C50.495,38.8175 54.525,38.91 57.6075,36.8575 C61.085,34.5425 62.475,29.6875 60.89,25.8525 C60.23,24.3675 59.1325,23.11 57.7775,22.225 C54.595,19.9775 50.6375,19.1225 47.575,16.68 C45.925,15.515 44.665,13.7825 44.1825,11.8125 C43.52,8.93 44.3225,5.7575 46.305,3.5575 L46.305,3.5575 Z" id="Shape" sketch:type="MSShapeGroup"></path>
                <path d="M0.85,2.54 C1.5125,2.3525 2.26,2.5775 2.725,3.0825 C2.7825,3.6175 2.9175,4.31 2.4525,4.705 C2.0525,5.0625 1.4475,5.4375 0.915,5.1225 C-0.1275,4.7775 -0.02,3.0325 0.85,2.54 L0.85,2.54 Z" id="Shape" sketch:type="MSShapeGroup"></path>
                <path d="M0.7825,12.01 C1.2625,11.9775 1.74,11.9775 2.2175,12.01 C2.3075,20.5875 2.21,29.17 2.265,37.7525 C2.275,38.2475 2.2425,38.745 2.2175,39.24 C1.74,39.27 1.26,39.27 0.7825,39.24 C0.69,30.6625 0.7925,22.08 0.735,13.5 C0.725,13.0025 0.7575,12.505 0.7825,12.01 L0.7825,12.01 Z" id="Shape" sketch:type="MSShapeGroup"></path>
            </g>
        </g>
    </g>
</svg>