<?xml version="1.0" encoding="UTF-8" standalone="no"?>
<svg width="119px" height="37px" viewBox="0 0 119 37" version="1.1" xmlns="http://www.w3.org/2000/svg" xmlns:xlink="http://www.w3.org/1999/xlink" xmlns:sketch="http://www.bohemiancoding.com/sketch/ns">
    <!-- Generator: Sketch 3.3.3 (12072) - http://www.bohemiancoding.com/sketch -->
    <title>roku</title>
    <desc>Created with Sketch.</desc>
    <defs></defs>
    <g id="Page-1" stroke="none" stroke-width="1" fill="none" fill-rule="evenodd" sketch:type="MSPage">
        <g id="Logos" sketch:type="MSArtboardGroup" transform="translate(-632.000000, -530.000000)" fill="#000000">
            <g id="roku" sketch:type="MSLayerGroup" transform="translate(632.203540, 527.000000)">
                <g id="g2993" transform="translate(60.474306, 20.367501) scale(1, -1) translate(-60.474306, -20.367501) translate(0.009189, 0.832617)" sketch:type="MSShapeGroup">
                    <g id="g3013" transform="translate(0.000596, 0.051159)">
                        <g id="g3015-Clipped">
                            <g id="g3015" transform="translate(0.043308, 0.004869)">
                                <g id="g3021" transform="translate(0.079315, 0.606128)">
                                    <path d="M18.5710813,24.0284986 C18.5710813,27.3702398 15.8825593,30.0614316 12.5951047,30.0614316 L9.63158986,30.0614316 L9.63158986,18.0489622 L12.5951047,18.0489622 C15.8825593,18.0489622 18.5710813,20.7419339 18.5710813,24.0284986 M32.0519589,0.0809849397 L21.1732787,0.0809849397 L12.5363684,12.066756 L9.63158986,12.066756 L9.63158986,0.106793327 L0.0442189226,0.106793327 L0.0442189226,36.0374082 L13.7787307,36.0374082 C21.696566,36.0374082 28.1593422,30.6532446 28.1593422,24.0284986 C28.1593422,19.988151 25.681737,16.3794265 21.9110426,14.1714745 L32.0519589,0.0809849397" id="path3023"></path>
                                </g>
                                <g id="g3025" transform="translate(28.167852, 0.046332)">
                                    <path d="M14.7758018,22.4320485 C12.24391,22.4320485 10.0902446,18.9906335 10.0902446,14.7304697 C10.0902446,10.4703059 12.24391,7.02444119 14.7758018,7.02444119 C17.3664299,7.02444119 19.5165356,10.4703059 19.5165356,14.7304697 C19.5165356,18.9906335 17.3664299,22.4320485 14.7758018,22.4320485 M29.5328597,14.7304697 C29.5328597,6.59192822 22.9143433,0.0748654359 14.7758018,0.0748654359 C6.63993016,0.0748654359 0.0703606605,6.59192822 0.0703606605,14.7304697 C0.0703606605,22.8627815 6.63993016,29.3834041 14.7758018,29.3834041 C22.9143433,29.3834041 29.5328597,22.8627815 29.5328597,14.7304697" id="path3027"></path>
                                </g>
                                <g id="g3029" transform="translate(59.547147, 0.054330)">
                                    <path d="M20.6521597,28.7794102 L9.60794976,17.7369801 L9.60794976,28.8158979 L0.0223587168,28.8158979 L0.0223587168,0.658947254 L9.60794976,0.658947254 L9.60794976,12.0804936 L21.1380693,0.658947254 L33.2030454,0.658947254 L18.551001,15.3127716 L30.6871726,27.4444936 L30.6871726,10.7348977 C30.6871726,5.18698432 34.0235742,0.0671342334 42.4255392,0.0671342334 C46.4142699,0.0671342334 50.0746112,2.32937288 51.8536101,4.37624498 L56.1636107,0.658947254 L58.2095929,0.658947254 L58.2095929,28.7794102 L48.6240019,28.7794102 L48.6240019,14.1291456 L48.6240019,10.5729278 C47.5444993,8.6889155 46.0404933,7.50439952 43.7159585,7.50439952 C41.3576059,7.50439952 40.2754335,8.90250216 40.2754335,13.3744727 L40.2754335,14.554539 L40.2754335,28.7794102 L20.6521597,28.7794102 L20.6521597,28.7794102 Z" id="path3031"></path>
                                </g>
                            </g>
                        </g>
                    </g>
                </g>
            </g>
        </g>
    </g>
</svg>