<?xml version="1.0" encoding="UTF-8" standalone="no"?>
<svg width="106px" height="40px" viewBox="0 0 106 40" version="1.1" xmlns="http://www.w3.org/2000/svg" xmlns:xlink="http://www.w3.org/1999/xlink" xmlns:sketch="http://www.bohemiancoding.com/sketch/ns">
    <!-- Generator: Sketch 3.3.3 (12072) - http://www.bohemiancoding.com/sketch -->
    <title>tvOS</title>
    <desc>Created with Sketch.</desc>
    <defs></defs>
    <g id="Page-1" stroke="none" stroke-width="1" fill="none" fill-rule="evenodd" sketch:type="MSPage">
        <g id="Logos" sketch:type="MSArtboardGroup" transform="translate(-167.000000, -527.000000)" fill="#000000">
            <path d="M171.972238,529.962963 L171.972238,537.424242 L167.716346,537.424242 L167.716346,539.255892 L171.972238,539.255892 L171.972238,559.835017 C171.972238,564.62963 173.776952,566.488215 177.978972,566.488215 C178.302205,566.488215 180.295471,566.461279 180.457087,566.434343 L180.457087,564.575758 C180.376279,564.602694 178.409949,564.62963 178.248333,564.62963 C175.339242,564.62963 174.046312,563.255892 174.046312,559.781145 L174.046312,539.255892 L180.079982,539.255892 L180.079982,537.424242 L174.046312,537.424242 L174.046312,529.962963 L171.972238,529.962963 Z M206.952268,537.424242 L204.743513,537.424242 L194.804119,564.306397 L194.750247,564.306397 L184.83779,537.424242 L182.602099,537.424242 L193.538126,566.434343 L196.016241,566.434343 L206.952268,537.424242 Z M226.686506,527 C216.100647,527 209.36664,534.757576 209.36664,546.986532 C209.36664,559.26936 216.073711,567 226.686506,567 C237.2993,567 244.006371,559.26936 244.006371,546.986532 C244.006371,534.757576 237.272364,527 226.686506,527 L226.686506,527 Z M226.686506,528.993266 C235.925563,528.993266 241.824553,535.969697 241.824553,546.986532 C241.824553,558.003367 235.925563,565.006734 226.686506,565.006734 C217.474384,565.006734 211.548459,558.003367 211.548459,546.986532 C211.548459,535.969697 217.447448,528.993266 226.686506,528.993266 L226.686506,528.993266 Z M245.240905,556.063973 C245.564137,562.501684 251.274575,567 259.247639,567 C267.382319,567 272.79646,562.501684 272.79646,556.063973 C272.79646,550.892256 269.429457,548.010101 261.914305,546.151515 L257.577605,545.047138 C251.328447,543.484848 248.473228,541.249158 248.473228,537.37037 C248.473228,532.468013 253.133161,528.96633 258.978278,528.96633 C265.092756,528.96633 269.644945,532.360269 269.941241,537.020202 L272.069187,537.020202 C271.826763,531.309764 266.35875,527 259.03215,527 C251.947975,527 246.29141,531.363636 246.29141,537.424242 C246.29141,542.299663 249.550669,545.208754 256.742588,547.040404 L261.348649,548.171717 C267.867167,549.814815 270.614642,552.158249 270.614642,556.225589 C270.614642,561.289562 266.008581,565.03367 259.409255,565.03367 C252.648312,565.03367 247.692083,561.343434 247.368851,556.063973 L245.240905,556.063973 Z" id="tvOS" sketch:type="MSShapeGroup"></path>
        </g>
    </g>
</svg>