<?xml version="1.0" encoding="UTF-8" standalone="no"?>
<svg width="133px" height="40px" viewBox="0 0 133 40" version="1.1" xmlns="http://www.w3.org/2000/svg" xmlns:xlink="http://www.w3.org/1999/xlink" xmlns:sketch="http://www.bohemiancoding.com/sketch/ns">
    <!-- Generator: Sketch 3.3.3 (12072) - http://www.bohemiancoding.com/sketch -->
    <title>xbox</title>
    <desc>Created with Sketch.</desc>
    <defs></defs>
    <g id="Page-1" stroke="none" stroke-width="1" fill="none" fill-rule="evenodd" sketch:type="MSPage">
        <g id="Logos" sketch:type="MSArtboardGroup" transform="translate(-851.000000, -527.000000)" fill="#000000">
            <g id="xbox" sketch:type="MSLayerGroup" transform="translate(851.000000, 527.000000)">
                <g id="g4146" sketch:type="MSShapeGroup">
                    <path d="M17.5531915,39.7868541 C16.295534,39.6141846 14.3016128,39.1418886 13.231383,38.7631554 C10.89435,37.9361263 7.27225043,35.6911735 6.54977915,34.6219427 C5.96745532,33.7601252 6.21142947,32.0214207 7.18443277,30.0990239 C9.00868723,26.494783 14.418084,20.3403968 19.0241213,16.6287629 L19.9388872,15.8916244 L20.9344574,16.7029772 C26.2090213,21.0015469 31.7317351,27.5220615 33.1290543,31.1007958 C33.6020309,32.3121549 33.7532585,33.5506249 33.515816,34.2681698 C33.4015532,34.6134727 33.0969777,34.960348 32.4685702,35.4608562 C29.8377564,37.5562228 27.1132819,38.8423576 23.8696809,39.5201061 C22.353734,39.8368626 18.9610064,39.9801379 17.5531915,39.7868541 L17.5531915,39.7868541 Z M3.37235394,31.0665899 C1.96608543,28.9539841 0.919798628,26.4770674 0.372105202,23.9639798 C-0.0558805574,22.0001698 -0.0558805574,17.9202546 0.372105202,15.9564446 C1.148175,12.3954536 2.87735011,9.05254971 5.30671883,6.41667225 C6.00658362,5.65731533 6.04365447,5.636793 6.70299543,5.64369401 C8.07609351,5.65806578 10.5942713,7.24216987 13.3324053,9.81404191 L14.6302383,11.0330674 L14.0777947,11.7167989 C10.9911383,15.5370027 7.99196011,20.1703225 6.18064,23.9168212 C4.56736787,27.2536817 3.91201277,29.7239862 4.2079883,31.3525645 C4.39483106,32.3806504 4.20347447,32.3151629 3.37235394,31.0665899 L3.37235394,31.0665899 Z M35.5600606,31.8814918 C36.6325468,29.1187162 33.2486,21.586591 27.4654521,13.864192 C26.804267,12.9812934 26.0375383,11.9845751 25.7616096,11.6492637 L25.2599213,11.0396053 L26.5594819,9.80850854 C29.0371117,7.46140668 31.5890862,5.80668371 33.0250234,5.61619395 L33.6697287,5.53066822 L34.6368553,6.53025549 C36.9550404,8.92624881 38.714116,12.3595247 39.5132426,16.0477454 C39.9444319,18.0378292 39.9499,21.8603597 39.5243457,23.8149401 C38.9385011,26.5057751 37.8265457,29.1636615 36.4799245,31.091966 C35.8535787,31.9888658 35.350883,32.4203321 35.5600564,31.8814918 L35.5600606,31.8814918 Z M18.0291362,5.10134695 C15.0904532,3.65445963 12.4232532,2.94539385 10.4812051,3.0947566 C9.90789947,3.13884944 9.44148936,3.12217772 9.44148936,3.05759215 C9.44148936,2.87411523 12.1739277,1.53043862 13.4722862,1.07544753 C15.7229053,0.286750706 17.062166,0.0810609655 19.9468085,0.0810609655 C22.9046489,0.0810609655 24.3242064,0.309516806 26.589983,1.1501774 C27.907717,1.63909008 30.4521277,2.87722907 30.4521277,3.0295408 C30.4521277,3.07748435 29.7490021,3.11963512 28.8896277,3.12320923 C27.6245234,3.12847077 27.0827415,3.19665623 26.0431415,3.48145146 C24.371133,3.93949273 22.9313819,4.49853411 21.3313936,5.31097645 C20.6195585,5.67243279 19.9719404,5.96347862 19.8922436,5.95774515 C19.8125468,5.95201146 18.9741489,5.56663236 18.0291362,5.10134695 L18.0291362,5.10134695 Z" id="path4164"></path>
                </g>
                <g id="g4201" transform="translate(43.636364, 6.060606)" sketch:type="MSShapeGroup">
                    <path d="M85.9772121,26.242897 L77.9492121,15.3426788 L69.9254545,26.242897 L66.6181818,26.242897 L76.2730909,13.073503 L67.4573333,1.10499515 L70.762303,1.10499515 L77.9492121,10.8676606 L85.1295758,1.10499515 L88.4321212,1.10499515 L79.6206061,13.073503 L89.2797576,26.242897 L85.9772121,26.242897 Z" id="polygon3021"></path>
                    <path d="M41.7779394,14.0246182 C41.2535549,13.5777669 40.6841893,13.2321229 40.1313964,12.9764411 C41.955497,11.9862659 43.1522303,10.1148168 43.1522303,7.94388836 C43.1522303,6.33522412 42.5591905,1.10617564 34.9810655,1.10617564 L24.7739164,1.10617564 L24.7739164,11.9424678 L21.3731115,11.9424678 C20.9304032,12.51716 19.9301661,13.8973684 19.5478279,14.4649587 L24.7739164,14.4649587 L24.7739164,26.2405272 L34.9810655,26.2417109 C40.5101842,26.2417109 43.9465006,23.4327618 43.9465006,18.9038794 C43.9465006,16.9247279 43.1983915,15.2420855 41.777943,14.0246309 L41.7779394,14.0246182 Z M27.5958824,3.7281097 L34.9810618,3.7281097 C36.9815358,3.7281097 40.3278897,4.22586061 40.3278897,7.72313758 C40.3278897,10.3669582 38.3771321,11.9424794 34.9810618,11.9424794 L27.5958824,11.9424794 L27.5958824,3.72810848 L27.5958824,3.7281097 Z M34.9810703,23.6198067 L27.5958909,23.6198067 L27.5958909,14.4685279 L34.9810703,14.4685279 C37.7817333,14.4685279 41.1316388,15.2420838 41.1316388,18.8494467 C41.1316267,22.9971679 37.2798327,23.6197982 34.9810691,23.6197982 L34.9810703,23.6198067 Z" id="path3023"></path>
                    <path d="M57.2230061,0.524384242 C50.1633467,0.524384242 45.2284509,5.92566303 45.2284509,13.6576691 C45.2284509,21.4015139 50.1633467,26.7992448 57.2230061,26.7992448 C64.2779297,26.7992448 69.1974376,21.4015176 69.1974376,13.6576691 C69.1974376,5.92565697 64.2779224,0.524384242 57.2229891,0.524384242 M57.2229891,24.1406267 C51.8442012,24.1406267 48.0764461,19.8295467 48.0764461,13.6576715 C48.0764461,7.49053091 51.8442012,3.18063515 57.2229891,3.18063515 C62.5934909,3.18063515 66.3423079,7.49053091 66.3423079,13.6576715 C66.3423079,19.8295503 62.59352,24.1406291 57.2230109,24.1406291" id="path3025"></path>
                    <path d="M23.4008,26.2405333 L13.7381576,13.0729212 L22.5556364,1.10558667 L19.2518909,1.10558667 L12.0643879,10.8706182 L4.88281212,1.10558667 L1.58854545,1.10558667 L10.400097,13.0729212 L0.738642424,26.2405333 L4.04829091,26.2405333 L12.0691273,15.3432727 L20.0946909,26.2405333 L23.4008,26.2405333 Z" id="polygon3027"></path>
                </g>
            </g>
        </g>
    </g>
</svg>