<?xml version="1.0" encoding="UTF-8" standalone="no"?>
<svg width="150px" height="45px" viewBox="0 0 150 45" version="1.1" xmlns="http://www.w3.org/2000/svg" xmlns:xlink="http://www.w3.org/1999/xlink" xmlns:sketch="http://www.bohemiancoding.com/sketch/ns">
    <!-- Generator: Sketch 3.3.3 (12072) - http://www.bohemiancoding.com/sketch -->
    <title>xbox</title>
    <desc>Created with Sketch.</desc>
    <defs></defs>
    <g id="Page-1" stroke="none" stroke-width="1" fill="none" fill-rule="evenodd" sketch:type="MSPage">
        <g id="Logos" sketch:type="MSArtboardGroup" transform="translate(-838.000000, -527.000000)" fill="#10152E">
            <g id="xbox" sketch:type="MSLayerGroup" transform="translate(838.267545, 527.000000)">
                <g id="g4146" sketch:type="MSShapeGroup">
                    <path d="M19.7473404,44.7602109 C18.3324758,44.5659577 16.0893144,44.0346247 14.8853059,43.6085499 C12.2561438,42.678142 8.18128173,40.1525702 7.36850154,38.9496855 C6.71338723,37.9801408 6.98785815,36.0240983 8.08248686,33.8614019 C10.1347731,29.8066309 16.2203445,22.8829464 21.4021364,18.7073582 L22.4312481,17.8780775 L23.5512646,18.7908493 C29.4851489,23.6267403 35.698202,30.9623192 37.270186,34.9883952 C37.8022847,36.3511743 37.9724158,37.7444531 37.705293,38.551691 C37.5767473,38.9401568 37.2340999,39.3303915 36.5271415,39.8934633 C33.5674759,42.2507507 30.5024422,43.6976523 26.853391,44.4601194 C25.1479508,44.8164704 21.3311322,44.9776552 19.7473404,44.7602109 L19.7473404,44.7602109 Z M3.79389818,34.9499137 C2.2118461,32.5732321 1.03477346,29.7867008 0.418618352,26.9594773 C-0.0628656271,24.750191 -0.0628656271,20.1602865 0.418618352,17.9510001 C1.29169688,13.9448853 3.23701887,10.1841184 5.97005868,7.21875629 C6.75740657,6.36447975 6.79911128,6.34139212 7.54086985,6.34915576 C9.0856052,6.36532401 11.9185552,8.1474411 14.998956,11.0407971 L16.4590181,12.4122008 L15.837519,13.1813988 C12.3650306,17.479128 8.99095512,22.6916129 6.95322,26.9064239 C5.13828886,30.6603919 4.40101436,33.4394845 4.73398684,35.271635 C4.94418495,36.4282317 4.72890878,36.3545582 3.79389818,34.9499137 L3.79389818,34.9499137 Z M40.0050682,35.8666782 C41.2116152,32.7585557 37.404675,24.2849149 30.8986336,15.597216 C30.1548004,14.603955 29.2922306,13.4826469 28.9818108,13.1054216 L28.4174114,12.419556 L29.8794172,11.0345721 C32.6667507,8.39408252 35.5377219,6.53251918 37.1531513,6.3182182 L37.8784448,6.22200175 L38.9664622,7.34653743 C41.5744205,10.0420299 43.5533805,13.9044653 44.4523979,18.0537135 C44.9374859,20.2925578 44.9436375,24.5929046 44.464889,26.7918076 C43.8058137,29.8189969 42.554864,32.8091192 41.039915,34.9784618 C40.3352761,35.987474 39.7697434,36.4728736 40.0050634,35.8666782 L40.0050682,35.8666782 Z M20.2827782,5.73901532 C16.9767598,4.11126708 13.9761598,3.31356808 11.7913557,3.48160118 C11.1463869,3.53120562 10.6216755,3.51244993 10.6216755,3.43979117 C10.6216755,3.23337963 13.6956686,1.72174345 15.1563219,1.20987847 C17.6882685,0.322594544 19.1949367,0.0911935862 22.4401596,0.0911935862 C25.7677301,0.0911935862 27.3647322,0.348206407 29.9137309,1.29394958 C31.3961816,1.84397634 34.2586436,3.23688271 34.2586436,3.4082334 C34.2586436,3.46216989 33.4676274,3.50958951 32.5008311,3.51361038 C31.0775888,3.51952962 30.4680842,3.59623826 29.2985342,3.91663289 C27.4175246,4.43192932 25.7978047,5.06085088 23.9978178,5.9748485 C23.1970033,6.38148688 22.468433,6.70891345 22.3787741,6.70246329 C22.2891152,6.69601289 21.3459176,6.26246141 20.2827782,5.73901532 L20.2827782,5.73901532 Z" id="path4164"></path>
                </g>
                <g id="g4201" transform="translate(49.090909, 6.818182)" sketch:type="MSShapeGroup">
                    <path d="M96.7243636,29.5232591 L87.6928636,17.2605136 L78.6661364,29.5232591 L74.9454545,29.5232591 L85.8072273,14.7076909 L75.8895,1.24311955 L79.6075909,1.24311955 L87.6928636,12.2261182 L95.7707727,1.24311955 L99.4861364,1.24311955 L89.5731818,14.7076909 L100.439727,29.5232591 L96.7243636,29.5232591 Z" id="polygon3021"></path>
                    <path d="M47.0001818,15.7776955 C46.4102493,15.2749878 45.769713,14.8861383 45.1478209,14.5984962 C47.1999341,13.4845492 48.5462591,11.379169 48.5462591,8.93687441 C48.5462591,7.12712714 47.8790894,1.24444759 39.3536986,1.24444759 L27.8706559,1.24444759 L27.8706559,13.4352762 L24.0447505,13.4352762 C23.5467035,14.081805 22.4214368,15.6345394 21.9913064,16.2730785 L27.8706559,16.2730785 L27.8706559,29.520593 L39.3536986,29.5219248 C45.5739573,29.5219248 49.4398132,26.361857 49.4398132,21.2668643 C49.4398132,19.0403189 48.5981905,17.1473461 47.0001859,15.7777098 L47.0001818,15.7776955 Z M31.0453677,4.19412341 L39.3536945,4.19412341 C41.6042277,4.19412341 45.3688759,4.75409318 45.3688759,8.68852977 C45.3688759,11.662828 43.1742736,13.4352893 39.3536945,13.4352893 L31.0453677,13.4352893 L31.0453677,4.19412205 L31.0453677,4.19412341 Z M39.3537041,26.5722825 L31.0453773,26.5722825 L31.0453773,16.2770939 L39.3537041,16.2770939 C42.50445,16.2770939 46.2730936,17.1473442 46.2730936,21.2056275 C46.27308,25.8718139 41.9398118,26.572273 39.3537027,26.572273 L39.3537041,26.5722825 Z" id="path3023"></path>
                    <path d="M64.3758818,0.589932273 C56.433765,0.589932273 50.8820073,6.66637091 50.8820073,15.3648777 C50.8820073,24.0767032 56.433765,30.1491505 64.3758818,30.1491505 C72.3126709,30.1491505 77.8471173,24.0767073 77.8471173,15.3648777 C77.8471173,6.66636409 72.3126627,0.589932273 64.3758627,0.589932273 M64.3758627,27.158205 C58.3247264,27.158205 54.0860018,22.30824 54.0860018,15.3648805 C54.0860018,8.42684727 58.3247264,3.57821455 64.3758627,3.57821455 C70.4176773,3.57821455 74.6350964,8.42684727 74.6350964,15.3648805 C74.6350964,22.3082441 70.41771,27.1582077 64.3758873,27.1582077" id="path3025"></path>
                    <path d="M26.3259,29.5206 L15.4554273,14.7070364 L25.3750909,1.243785 L21.6583773,1.243785 L13.5724364,12.2294455 L5.49316364,1.243785 L1.78711364,1.243785 L11.7001091,14.7070364 L0.830972727,29.5206 L4.55432727,29.5206 L13.5777682,17.2611818 L22.6065273,29.5206 L26.3259,29.5206 Z" id="polygon3027"></path>
                </g>
            </g>
        </g>
    </g>
</svg>