<?xml version="1.0" encoding="utf-8"?>
<!-- Generator: Adobe Illustrator 23.0.1, SVG Export Plug-In . SVG Version: 6.00 Build 0)  -->
<svg version="1.1" id="Layer_1" xmlns="http://www.w3.org/2000/svg" xmlns:xlink="http://www.w3.org/1999/xlink" x="0px" y="0px"
	 viewBox="0 0 500 100" style="enable-background:new 0 0 500 100;" xml:space="preserve">
<style type="text/css">
	.st0{clip-path:url(#SVGID_2_);}
</style>
<g>
	<defs>
		<path id="SVGID_1_" d="M53.9,31h17v64.6h-17v-4c-2.9,1.6-6.2,2.8-9.8,3.5c-2.1,0.4-4.3,0.5-6.5,0.7c-14.2-0.3-25.7-8.1-30.4-20.8
			C-0.3,54.9,12.3,33.3,33,31c7.8-0.9,14.8,0.2,20.9,3.7V31z M37.9,81.8c9.2,0,16.7-8.3,16.7-18.6c0-10.3-7.5-18.5-17-18.5
			c-9.7,0-17.2,8.1-17.1,18.6C20.5,73.8,28.1,81.8,37.9,81.8z M121.1,89.3l9.7-13l14.4,19.3h-19.4L121.1,89.3z M130.8,50.3l-9.7-13
			l4.7-6.3h19.4L130.8,50.3z M97,95.6H77.6l24.1-32.3L77.6,31H97l24.1,32.3L97,95.6z M181.7,95.5c-14.5-0.3-26.2-8-31-20.5
			c-7.6-19.8,5.3-41,26.3-43.3c12.7-1.4,23.6,2.2,31.4,12.6c12.6,16.7,6.3,45.5-20.1,50.5C186.2,95.2,184,95.3,181.7,95.5z
			 M181.8,45.2c-9.9,0-17.5,8-17.4,18.2c0,10.4,7.7,18.2,17.7,18.2c9.4,0,17-8.2,17-18.3C199.1,53.3,191.4,45.2,181.8,45.2z
			 M222.7,31.4h15.8v5.9c3.6-1.8,7-4,10.7-5.2c10.5-3.5,21.7-0.2,27.8,7.7c3.8,5,5.2,10.8,5.2,16.9c0.1,11.9,0,25.6,0,37.5
			c0,0.4-0.1,0.7-0.1,1.2h-15.9v-2.5c0-10,0-21.9,0-31.9c0-4.1-0.6-8.2-3.5-11.4c-5.5-6.2-16.4-4.8-20.8,2.6
			c-2.7,4.6-3.1,9.8-3.1,15c-0.1,7.9,0,17.7,0,25.7c0,0.8,0,1.7,0,2.6h-15.9V31.4z M301,24c-5.7,0-9.7-4-9.6-9.5
			c0.1-5.3,4.5-9.6,9.9-9.4c5.2,0.1,9.6,4.4,9.6,9.6C310.9,20,306.6,24,301,24z M293.2,95.6V31.2H309v64.5H293.2z M316.8,77.9
			c5.6-1.1,10.9-2.2,16.2-3.3c2.7,7.7,12.9,11,19.8,6.7c1.8-1.1,2.8-2.6,2.7-4.8c-0.1-2.3-1.6-3.7-3.5-4.2c-4-1.1-8.2-1.9-12.3-2.9
			c-3.7-1-7.5-1.7-10.9-3.3c-14.2-6.6-11.8-23.4-2.8-30.1c4.9-3.7,10.5-5.1,16.4-5.3c9.1-0.3,17.5,1.7,23.9,9
			c2.3,2.6,3.8,5.6,4.4,9.3c-5.1,1-10.2,2-15.2,3c-3.3-7.2-8.9-10-15.9-8c-2.8,0.8-4.4,2.8-4.5,5.3c-0.1,2.5,1.2,4.3,4.3,5
			c5.5,1.4,11.1,2.5,16.6,3.8c5.7,1.4,10.8,3.9,13.6,9.4c5.1,10,0.5,21.7-10.5,25.9c-10.3,4-20.8,3.7-31-0.7
			C321.8,90.1,317.8,85.2,316.8,77.9z M478,31.1h17v64.6h-17v-4c-2.9,1.6-6.2,2.8-9.8,3.5c-2.1,0.4-4.3,0.5-6.5,0.7
			c-14.2-0.3-25.7-8.1-30.4-20.8c-7.5-20.2,5.2-41.7,25.9-44.1c7.8-0.9,14.8,0.2,20.9,3.7V31.1z M462,81.9c9.2,0,16.7-8.3,16.7-18.6
			c0-10.3-7.5-18.5-17-18.5c-9.7,0-17.2,8.1-17.1,18.6C444.7,74,452.2,82,462,81.9z M424.1,30.9v13.3h-19.6c-0.1,0.8-0.1,3.3-0.1,4
			c0,7,0,14,0,21c0,9.8,5.1,13.4,14.4,10.4c1.5-0.5,2.9-1.1,4.7-1.7c0.8,2.2,1.6,4.4,2.3,6.6c0.7,2.2,1.5,4.3,2.2,6.5
			c-10.2,7.1-26.5,6-34-2.2c-4.6-5.1-5.6-11.3-5.7-17.8c-0.1-7.3,0-14.6,0-22v-4.6h-12.8V31.1h12.8V14.5h16.1v16.4H424.1z"/>
	</defs>
	<use xlink:href="#SVGID_1_"  style="overflow:visible;fill-rule:evenodd;clip-rule:evenodd;"/>
	<clipPath id="SVGID_2_">
		<use xlink:href="#SVGID_1_"  style="overflow:visible;"/>
	</clipPath>
	<rect x="-2.5" y="-2.5" class="st0" width="504.9" height="106.3"/>
</g>
</svg>
