<?xml version="1.0" encoding="UTF-8" standalone="no"?>
<svg width="146px" height="59px" viewBox="0 0 146 59" version="1.1" xmlns="http://www.w3.org/2000/svg" xmlns:xlink="http://www.w3.org/1999/xlink" xmlns:sketch="http://www.bohemiancoding.com/sketch/ns">
    <!-- Generator: Sketch 3.3.3 (12072) - http://www.bohemiancoding.com/sketch -->
    <title>aol</title>
    <desc>Created with Sketch.</desc>
    <defs></defs>
    <g id="Page-1" stroke="none" stroke-width="1" fill="none" fill-rule="evenodd" sketch:type="MSPage">
        <g id="Logos" sketch:type="MSArtboardGroup" transform="translate(-345.000000, -696.000000)" fill="#10152E">
            <g id="aol" sketch:type="MSLayerGroup" transform="translate(316.000000, 727.000000)">
                <g id="Group" transform="translate(0.229271, 0.459718)" sketch:type="MSShapeGroup">
                    <path d="M108.947589,-18.517617 C95.9372501,-18.517617 86.094646,-8.41103503 86.094646,4.10905908 C86.094646,17.3079535 96.3520725,26.7357352 108.947589,26.7357352 C121.543105,26.7357352 131.762821,17.3079535 131.762821,4.10905908 C131.762821,-8.41103503 121.957928,-18.517617 108.947589,-18.517617 L108.947589,-18.517617 Z M108.947589,-6.56318981 C114.566547,-6.60090094 119.167304,-1.81158783 119.167304,4.10905908 C119.167304,9.99199486 114.566547,14.781308 108.947589,14.781308 C103.328631,14.781308 98.7278735,9.99199486 98.7278735,4.10905908 C98.7278735,-1.81158783 103.328631,-6.56318981 108.947589,-6.56318981 L108.947589,-6.56318981 Z" id="Shape"></path>
                    <path d="M174.048335,18.8148901 C174.048335,23.1893808 170.503489,26.7342267 166.128998,26.7342267 C161.754507,26.7342267 158.209661,23.1893808 158.209661,18.8148901 C158.209661,14.4403994 161.754507,10.8955535 166.128998,10.8955535 C170.503489,10.8955535 174.048335,14.4403994 174.048335,18.8148901 L174.048335,18.8148901 Z" id="Shape"></path>
                    <path d="M150.995495,25.2272901 L138.550823,25.2272901 L138.550823,-30.9622889 L150.995495,-30.9622889 L150.995495,25.2272901 L150.995495,25.2272901 Z" id="Shape"></path>
                    <path d="M29.1885556,25.2272901 L51.8152317,-30.9622889 L63.505681,-30.9622889 L85.7552459,25.2272901 L69.9165726,25.2272901 L67.2767937,17.3079535 L47.6670078,17.3079535 L45.0272289,25.2272901 L29.1885556,25.2272901 L29.1885556,25.2272901 Z M63.505681,5.61750415 L51.8152317,5.61750415 L57.6604564,-13.2380593 L63.505681,5.61750415 L63.505681,5.61750415 Z" id="Shape"></path>
                </g>
            </g>
        </g>
    </g>
</svg>