<?xml version="1.0" encoding="UTF-8" standalone="no"?>
<svg width="146px" height="59px" viewBox="0 0 146 59" version="1.1" xmlns="http://www.w3.org/2000/svg" xmlns:xlink="http://www.w3.org/1999/xlink" xmlns:sketch="http://www.bohemiancoding.com/sketch/ns">
    <!-- Generator: Sketch 3.3.3 (12072) - http://www.bohemiancoding.com/sketch -->
    <title>aol</title>
    <desc>Created with Sketch.</desc>
    <defs></defs>
    <g id="Page-1" stroke="none" stroke-width="1" fill="none" fill-rule="evenodd" sketch:type="MSPage">
        <g id="Logos" sketch:type="MSArtboardGroup" transform="translate(-345.000000, -696.000000)" fill="#10152E">
            <g id="aol" sketch:type="MSLayerGroup" transform="translate(362.000000, 703.000000)">
                <g id="Group" transform="translate(0.174867, 0.350632)" sketch:type="MSShapeGroup">
                    <path d="M61.0956186,9.8763938 C51.1724789,9.8763938 43.665408,17.5848038 43.665408,27.1340281 C43.665408,37.2009815 51.4888689,44.3916624 61.0956186,44.3916624 C70.7023684,44.3916624 78.4970666,37.2009815 78.4970666,27.1340281 C78.4970666,17.5848038 71.0187584,9.8763938 61.0956186,9.8763938 L61.0956186,9.8763938 Z M61.0956186,18.9941773 C65.3812645,18.9654145 68.8903168,22.6182805 68.8903168,27.1340281 C68.8903168,31.621013 65.3812645,35.273879 61.0956186,35.273879 C56.8099728,35.273879 53.3009205,31.621013 53.3009205,27.1340281 C53.3009205,22.6182805 56.8099728,18.9941773 61.0956186,18.9941773 L61.0956186,18.9941773 Z" id="Shape"></path>
                    <path d="M110.74873,38.3503399 C110.74873,41.6868159 108.045034,44.3905119 104.708558,44.3905119 C101.372082,44.3905119 98.6683858,41.6868159 98.6683858,38.3503399 C98.6683858,35.0138639 101.372082,32.3101679 104.708558,32.3101679 C108.045034,32.3101679 110.74873,35.0138639 110.74873,38.3503399 L110.74873,38.3503399 Z" id="Shape"></path>
                    <path d="M93.1660557,43.2411535 L83.6743569,43.2411535 L83.6743569,0.384694927 L93.1660557,0.384694927 L93.1660557,43.2411535 L93.1660557,43.2411535 Z" id="Shape"></path>
                    <path d="M0.262457687,43.2411535 L17.520092,0.384694927 L26.4365364,0.384694927 L43.4065435,43.2411535 L31.3261994,43.2411535 L29.3128088,37.2009815 L14.3561924,37.2009815 L12.3428017,43.2411535 L0.262457687,43.2411535 L0.262457687,43.2411535 Z M26.4365364,28.2845371 L17.520092,28.2845371 L21.9783142,13.9031751 L26.4365364,28.2845371 L26.4365364,28.2845371 Z" id="Shape"></path>
                </g>
            </g>
        </g>
    </g>
</svg>