<?xml version="1.0" encoding="UTF-8" standalone="no"?>
<svg width="60px" height="60px" viewBox="0 0 60 60" version="1.1" xmlns="http://www.w3.org/2000/svg" xmlns:xlink="http://www.w3.org/1999/xlink" xmlns:sketch="http://www.bohemiancoding.com/sketch/ns">
    <!-- Generator: Sketch 3.3.3 (12072) - http://www.bohemiancoding.com/sketch -->
    <title>channel-five</title>
    <desc>Created with Sketch.</desc>
    <defs></defs>
    <g id="Page-1" stroke="none" stroke-width="1" fill="none" fill-rule="evenodd" sketch:type="MSPage">
        <g id="Logos" sketch:type="MSArtboardGroup" transform="translate(-533.000000, -697.000000)">
            <g id="channel-five" sketch:type="MSLayerGroup" transform="translate(533.000000, 697.000000)">
                <g id="layer1" transform="translate(0.000000, 0.191400)" sketch:type="MSShapeGroup">
                    <path d="M59.4007989,29.8091353 C59.4007993,40.4199203 53.7400132,50.2246902 44.5508039,55.5300828 C35.3615946,60.8354754 24.0400217,60.8354754 14.8508124,55.5300828 C5.66160309,50.2246902 0.000816932789,40.4199203 0.00081738,29.8091353 C0.00081738,13.4062833 13.2979562,0.109144504 29.7008081,0.109144504 C46.1036601,0.109144504 59.4007989,13.4062833 59.4007989,29.8091353 L59.4007989,29.8091353 Z" id="path2924" fill="#10152E"></path>
                    <path d="M45.17538,19.925214 L45.17538,9.834807 L17.39562,9.834807 L13.28472,33.503667 L24.12258,33.503667 C24.12258,33.503667 25.1961,30.887634 29.85291,30.887634 C33.16464,30.887634 35.58327,32.853411 35.58327,36.368844 C35.58327,39.908145 32.87907,41.974629 29.47917,41.974629 C23.74158,41.974629 23.3751,37.86372 23.3751,37.86372 L11.91438,37.86372 C11.91438,45.356331 16.82505,51.317598 29.23002,51.317598 C41.1474,51.317598 47.29314,45.124344 47.29314,36.867138 C47.29314,29.094111 43.13988,22.914966 33.83925,22.914966 C27.80676,22.914966 25.24371,25.406427 25.24371,25.406427 L26.36487,19.925214 L45.17538,19.925214 L45.17538,19.925214 Z" id="path2922" fill="#FFFFFF"></path>
                </g>
            </g>
        </g>
    </g>
</svg>