<?xml version="1.0" encoding="UTF-8" standalone="no"?>
<svg width="78px" height="61px" viewBox="0 0 78 61" version="1.1" xmlns="http://www.w3.org/2000/svg" xmlns:xlink="http://www.w3.org/1999/xlink" xmlns:sketch="http://www.bohemiancoding.com/sketch/ns">
    <!-- Generator: Sketch 3.3.3 (12072) - http://www.bohemiancoding.com/sketch -->
    <title>mtv</title>
    <desc>Created with Sketch.</desc>
    <defs></defs>
    <g id="Page-1" stroke="none" stroke-width="1" fill="none" fill-rule="evenodd" sketch:type="MSPage">
        <g id="Logos" sketch:type="MSArtboardGroup" transform="translate(-662.000000, -697.000000)" fill="#10152E">
            <g id="mtv" sketch:type="MSLayerGroup" transform="translate(662.000000, 697.500000)">
                <g id="layer1" transform="translate(0.073553, 0.065807)" sketch:type="MSShapeGroup">
                    <g id="g19319" transform="translate(26.612824, 42.032726) scale(1, -1) translate(-26.612824, -42.032726) translate(24.800135, 31.700400)">
                        <path d="M0,20.5784302 L0,0.00161072266 L3.47010438,2.61720782 L3.47010438,17.07282 L0,20.5784302 L0,20.5784302 Z" id="path19321"></path>
                    </g>
                    <g id="g19323" transform="translate(35.427620, 33.963111) scale(1, -1) translate(-35.427620, -33.963111) translate(32.255415, 31.334712)">
                        <path d="M0,0 L4.51871027,1.0320365 L6.3437106,2.52801601 L6.3437106,5.24066241 L0,0 L0,0 Z" id="path19325"></path>
                    </g>
                    <g id="g19327" transform="translate(29.209220, 4.161402) scale(1, -1) translate(-29.209220, -4.161402) translate(25.130670, 0.807928)">
                        <path d="M6.55736193,3.64649909 L0.17341138,6.58874994 L5.94429438,0.121952422 L8.12908725,2.27834061 L6.55736193,3.64649909 L6.55736193,3.64649909 Z" id="path19329"></path>
                    </g>
                    <g id="g19331" transform="translate(2.826749, 56.628836) scale(1, -1) translate(-2.826749, -56.628836) translate(0.107715, 53.728534)">
                        <path d="M0,5.65101752 L2.0048966,5.65101752 L2.65820411,2.37974586 L2.67003939,2.37974586 L3.3233469,5.65101752 L5.32824349,5.65101752 L5.32824349,0.0884354683 L3.99559085,0.0884354683 L3.99559085,3.65795621 L3.98138852,3.65795621 L3.18842469,0.0884354683 L2.1398188,0.0884354683 L1.34448792,3.65795621 L1.33265264,3.65795621 L1.33265264,0.0884354683 L0,0.0884354683 L0,5.65101752 L0,5.65101752 Z" id="path19333"></path>
                    </g>
                    <g id="g19337" transform="translate(8.084927, 56.755329) scale(1, -1) translate(-8.084927, -56.755329) translate(5.909701, 53.855027)">
                        <path d="M4.19030574,2.36705619 C4.19030574,0.823735555 3.50385944,0.085214023 2.10966335,0.085214023 C0.715467248,0.085214023 0.0219197837,0.823735555 0.0219197837,2.36705619 L0.0219197837,5.77798417 L1.43031822,5.77798417 L1.43031822,2.74578518 C1.43031822,2.1776917 1.43031822,1.4699419 2.11439746,1.4699419 C2.78427436,1.4699419 2.78427436,2.1776917 2.78427436,2.74578518 L2.78427436,5.77798417 L4.19030574,5.77798417 L4.19030574,2.36705619 L4.19030574,2.36705619 Z" id="path19339"></path>
                    </g>
                    <g id="g19341" transform="translate(12.631236, 56.582654) scale(1, -1) translate(-12.631236, -56.582654) translate(10.456010, 53.591717)">
                        <path d="M1.46071178,2.00451843 C1.46071178,1.86486211 1.47964823,1.73940814 1.51278702,1.63762472 C1.61457044,1.3038698 1.92228774,1.23285811 2.18503098,1.23285811 C2.41463543,1.23285811 2.7673268,1.3251733 2.7673268,1.73940814 C2.7673268,2.02582193 2.57086114,2.10393479 1.78026437,2.37614625 C1.05831223,2.62705421 0.229842562,2.86849394 0.229842562,3.99047858 C0.229842562,5.27342303 1.13642508,5.82731418 2.07614639,5.82731418 C3.06794294,5.82731418 3.94612079,5.36810528 3.98399368,4.01178208 L2.6537081,4.01178208 C2.67737867,4.22245008 2.60163287,4.3621064 2.48564711,4.4591557 C2.36966136,4.55620501 2.20870154,4.59644496 2.06904522,4.59644496 C1.87731367,4.59644496 1.5624952,4.5349015 1.5624952,4.22245008 C1.58853282,3.8271517 2.24184033,3.74193767 2.88804667,3.52180145 C3.53662006,3.30403228 4.17572524,2.93713857 4.17572524,1.91930441 C4.17572524,0.46829896 3.08214527,0.00198888943 2.06431111,0.00198888943 C1.54355875,0.00198888943 0.0641486284,0.229226284 0.0523133474,2.00451843 L1.46071178,2.00451843 L1.46071178,2.00451843 Z" id="path19343"></path>
                    </g>
                    <path d="M15.0843172,53.8790683 L16.4927148,53.8790683 L16.4927148,59.4416502 L15.0843172,59.4416502 L15.0843172,53.8790683 L15.0843172,53.8790683 Z" id="path19345"></path>
                    <g id="g19347" transform="translate(19.215700, 56.605568) scale(1, -1) translate(-19.215700, -56.605568) translate(16.949839, 53.614631)">
                        <path d="M3.10269245,3.64649909 C3.07665483,3.85006593 2.94883379,4.46550054 2.36417091,4.46550054 C1.70612929,4.46550054 1.49546129,3.68437199 1.49546129,2.93638224 C1.49546129,2.19075953 1.70612929,1.40963099 2.36417091,1.40963099 C2.83994921,1.40963099 3.02694665,1.81676466 3.10979362,2.33751702 L4.49215443,2.33751702 C4.49215443,1.21553238 3.74416468,0.0249031178 2.40441087,0.0249031178 C0.925000749,0.0249031178 0.0846958006,1.29364524 0.0846958006,2.93638224 C0.0846958006,4.68800382 0.996012435,5.85022841 2.40441087,5.85022841 C3.66131771,5.84312724 4.35013106,5.04069519 4.47321798,3.64649909 L3.10269245,3.64649909 L3.10269245,3.64649909 Z" id="path19349"></path>
                    </g>
                    <g id="g19351" transform="translate(25.718714, 56.683490) scale(1, -1) translate(-25.718714, -56.683490) translate(23.634121, 53.873822)">
                        <path d="M1.46071178,4.19030574 L0.180134382,4.19030574 L0.180134382,5.61527357 L4.14968762,5.61527357 L4.14968762,4.19030574 L2.86911022,4.19030574 L2.86911022,0.0526915142 L1.46071178,0.0526915142 L1.46071178,4.19030574 L1.46071178,4.19030574 Z" id="path19353"></path>
                    </g>
                    <g id="g19355" transform="translate(30.187031, 56.628836) scale(1, -1) translate(-30.187031, -56.628836) translate(28.193074, 53.728534)">
                        <path d="M0,5.65101752 L3.7825558,5.65101752 L3.7825558,4.22604969 L1.40839844,4.22604969 L1.40839844,3.53013517 L3.56478663,3.53013517 L3.56478663,2.20931782 L1.40839844,2.20931782 L1.40839844,1.5134033 L3.85593454,1.5134033 L3.85593454,0.0884354683 L0,0.0884354683 L0,5.65101752 L0,5.65101752 Z" id="path19357"></path>
                    </g>
                    <g id="g19359" transform="translate(34.202103, 56.628836) scale(1, -1) translate(-34.202103, -56.628836) translate(32.480048, 53.728534)">
                        <path d="M0,5.65101752 L1.40603138,5.65101752 L1.40603138,1.5134033 L3.43223148,1.5134033 L3.43223148,0.0884354683 L0,0.0884354683 L0,5.65101752 L0,5.65101752 Z" id="path19361"></path>
                    </g>
                    <g id="g19363" transform="translate(38.255616, 56.628836) scale(1, -1) translate(-38.255616, -56.628836) translate(36.261658, 53.728534)">
                        <path d="M0,5.65101752 L3.7825558,5.65101752 L3.7825558,4.22604969 L1.40839844,4.22604969 L1.40839844,3.53013517 L3.56715368,3.53013517 L3.56715368,2.20931782 L1.40839844,2.20931782 L1.40839844,1.5134033 L3.85356748,1.5134033 L3.85356748,0.0884354683 L0,0.0884354683 L0,5.65101752 L0,5.65101752 Z" id="path19365"></path>
                    </g>
                    <g id="g19367" transform="translate(42.591799, 56.630326) scale(1, -1) translate(-42.591799, -56.630326) translate(40.325938, 53.820658)">
                        <path d="M3.10269245,0 L1.52860008,0 L0.162808655,5.56258205 L1.58540943,5.56258205 L2.33576624,2.18952698 L2.34523447,2.18952698 L3.08612305,5.56258205 L4.53002733,5.56258205 L3.10269245,0 L3.10269245,0 Z" id="path19369"></path>
                    </g>
                    <path d="M45.3850024,53.8790683 L46.7957637,53.8790683 L46.7957637,59.4416502 L45.3850024,59.4416502 L45.3850024,53.8790683 L45.3850024,53.8790683 Z" id="path19371"></path>
                    <g id="g19373" transform="translate(49.467602, 56.582654) scale(1, -1) translate(-49.467602, -56.582654) translate(47.292375, 53.591717)">
                        <path d="M1.46071178,2.00451843 C1.46071178,1.86486211 1.47964823,1.73940814 1.51278702,1.63762472 C1.61457044,1.3038698 1.92228774,1.23285811 2.18503098,1.23285811 C2.41463543,1.23285811 2.7673268,1.3251733 2.7673268,1.73940814 C2.7673268,2.02582193 2.56612702,2.10393479 1.78026437,2.37614625 C1.05831223,2.62705421 0.229842562,2.86849394 0.229842562,3.99047858 C0.229842562,5.27342303 1.13405803,5.82731418 2.07614639,5.82731418 C3.06794294,5.82731418 3.94375373,5.36810528 3.98162663,4.01178208 L2.65134105,4.01178208 C2.67737867,4.22245008 2.59926581,4.3621064 2.48328006,4.4591557 C2.36966136,4.55620501 2.20870154,4.59644496 2.06904522,4.59644496 C1.87731367,4.59644496 1.5624952,4.5349015 1.5624952,4.22245008 C1.58853282,3.8271517 2.24184033,3.74193767 2.88804667,3.52180145 C3.53662006,3.30403228 4.17572524,2.93713857 4.17572524,1.91930441 C4.17572524,0.46829896 3.07977822,0.00198888943 2.06431111,0.00198888943 C1.54355875,0.00198888943 0.0641486284,0.229226284 0.0523133474,2.00451843 L1.46071178,2.00451843 L1.46071178,2.00451843 Z" id="path19375"></path>
                    </g>
                    <path d="M51.9204526,53.8790683 L53.3288393,53.8790683 L53.3288393,59.4416502 L51.9204526,59.4416502 L51.9204526,53.8790683 L51.9204526,53.8790683 Z" id="path19377"></path>
                    <g id="g19379" transform="translate(56.114967, 56.587389) scale(1, -1) translate(-56.114967, -56.587389) translate(53.758472, 53.596452)">
                        <path d="M2.36705619,5.8322864 C3.75888524,5.8322864 4.68677126,4.61561952 4.68677126,2.91844023 C4.68677126,1.22126094 3.75888524,0.00696111299 2.36705619,0.00696111299 C0.979961264,0.00696111299 0.0497081801,1.22126094 0.0497081801,2.91844023 C0.0497081801,4.61561952 0.979961264,5.8322864 2.36705619,5.8322864 M2.36705619,1.39168899 C2.72684873,1.39168899 3.27837283,1.68046984 3.27837283,2.91844023 C3.27837283,4.15641062 2.72684873,4.44755853 2.36705619,4.44755853 C2.00963071,4.44755853 1.45810662,4.15641062 1.45810662,2.91844023 C1.45810662,1.68046984 2.00963071,1.39168899 2.36705619,1.39168899" id="path19381"></path>
                    </g>
                    <g id="g19383" transform="translate(61.053178, 56.628836) scale(1, -1) translate(-61.053178, -56.628836) translate(58.968585, 53.728534)">
                        <path d="M0,5.65101752 L1.44153722,5.65101752 L2.7718228,2.67562789 L2.78602514,2.67562789 L2.78602514,5.65101752 L4.11631072,5.65101752 L4.11631072,0.0884354683 L2.74815224,0.0884354683 L1.34448792,3.12536856 L1.33265264,3.12536856 L1.33265264,0.0884354683 L0,0.0884354683 L0,5.65101752 L0,5.65101752 Z" id="path19385"></path>
                    </g>
                    <g id="g19387" transform="translate(65.348333, 55.101515) scale(1, -1) translate(-65.348333, -55.101515) translate(63.898182, 53.651364)">
                        <path d="M1.2794429,0.735636254 L0.976459708,0.735636254 L0.976459708,2.15113586 L1.50668029,2.15113586 C1.86883989,2.15113586 2.08660906,2.04935244 2.08660906,1.72269869 C2.08660906,1.46232251 1.93275041,1.37000731 1.74575297,1.35580498 L2.10554551,0.735636254 L1.74812003,0.735636254 L1.42146627,1.33213441 L1.2794429,1.33213441 L1.2794429,0.735636254 M1.54692025,1.57120709 C1.68184245,1.57120709 1.76468942,1.59961176 1.76468942,1.75583747 C1.76468942,1.9002279 1.60609665,1.91206318 1.4901109,1.91206318 L1.2794429,1.91206318 L1.2794429,1.57120709 L1.54692025,1.57120709 M1.49721207,0.127302812 C0.798930493,0.127302812 0.176394714,0.610182276 0.176394714,1.441019 C0.176394714,2.27185572 0.798930493,2.75710224 1.49721207,2.75710224 C2.19312659,2.75710224 2.81566237,2.27185572 2.81566237,1.441019 C2.81566237,0.610182276 2.19312659,0.127302812 1.49721207,0.127302812 M1.49721207,2.44938494 C0.976459708,2.44938494 0.555123705,2.04935244 0.555123705,1.441019 C0.555123705,0.835052614 0.976459708,0.430286005 1.49721207,0.432653061 L1.49721207,0.430286005 C2.00612915,0.430286005 2.43693338,0.835052614 2.43693338,1.441019 C2.43693338,2.04935244 2.00612915,2.44938494 1.49721207,2.44938494" id="path19389"></path>
                    </g>
                    <g id="g19391" transform="translate(38.765549, 26.252773) scale(1, -1) translate(-38.765549, -26.252773) translate(0.064642, 0.150054)">
                        <path d="M75.7457982,45.1658973 C75.1635024,45.5635627 74.1196306,45.7623954 73.0875941,45.6724473 C72.1052658,45.5896003 71.4519583,45.1090879 70.9146365,44.6640814 C70.9217377,44.6688155 69.5157063,43.2769864 69.5157063,43.2769864 L69.1393444,42.6757542 C69.1346102,42.668653 67.8848046,41.1063959 67.8848046,41.1063959 C67.8848046,41.1063959 67.8729693,41.0921936 67.8706022,41.0898265 L67.8706022,49.7532522 L64.0359712,52.0587649 L64.0383383,36.3225753 L63.9886301,36.2468295 L63.0702123,35.1674519 L63.0702123,52.0587649 L39.3665116,52.0587649 L30.9350574,43.6699178 L23.4456916,52.0587649 L0.0662775734,52.0587649 L0.0662775734,0.0498062356 L23.843357,0.0498062356 L23.843357,22.9605431 L30.8427422,15.7410217 L39.4375232,23.0670607 L39.4375232,0.0498062356 L63.0749464,0.0498062356 L63.0725793,21.9971513 C63.2572097,22.3119697 63.4087013,22.5628777 63.4087013,22.5628777 C63.4110684,22.5699789 63.6099011,22.8563927 63.6099011,22.8563927 C63.6217364,22.870595 63.8229361,23.1925146 64.0430724,23.542839 L64.0454394,0.0498062356 L67.8706022,2.69144095 L67.8706022,30.4025678 C68.0386632,30.6534758 68.2895712,31.0274706 68.2895712,31.0274706 C68.325077,31.086647 68.8789682,31.9151167 68.8789682,31.9151167 C68.8789682,31.9174838 69.7595131,33.2098964 69.7595131,33.2098964 C69.7689813,33.2312 70.0956351,33.6454348 70.0956351,33.6454348 L70.9099024,34.7981912 C71.0708622,35.169819 71.5300711,35.4159928 71.7052333,35.508308 L71.7880802,35.5532821 L71.8993319,35.633762 L72.3230349,36.0621992 C72.3301361,36.0716674 73.0591894,36.687102 73.0591894,36.687102 L74.304261,37.2670308 L75.4664856,37.9061359 C75.4712197,37.908503 76.5316608,39.215118 76.5316608,39.215118 L77.0973873,40.9714737 C77.0997543,40.9738408 77.2630812,42.6733871 77.2630812,42.6733871 C77.2275754,43.5373626 76.5742679,44.607272 75.7457982,45.1658973 M47.263011,31.0203695 C47.2890486,30.8546755 47.3789968,29.316089 47.3742627,29.062814 C47.3695285,28.3006219 47.4216038,27.460317 47.3979332,27.1218279 C47.3789968,26.8638188 47.4145026,25.9738057 47.4145026,25.9738057 C47.4784131,25.27079 47.6299047,24.5014967 47.6441071,24.3642075 C47.6748788,24.0044149 47.5399566,22.6386235 47.5801965,22.3285391 C47.5849307,22.2646286 47.6961823,21.6941681 47.6725117,21.5592459 C47.6109683,21.2041874 47.7151187,20.7757503 47.7032835,20.6147904 C47.684347,20.3331108 47.6725117,20.0111911 47.6630435,19.667968 C47.6441071,19.1590509 47.6275377,18.6335644 47.5801965,18.1743555 C47.5659942,18.0583698 47.5825636,17.2559377 47.5825636,17.2559377 C47.4902484,16.4487715 47.390832,15.6155678 47.5281213,14.7799969 C47.5541589,14.6119359 47.5210201,14.0604118 47.5352225,13.9633625 C47.556526,13.8379086 47.7340552,13.1893352 47.7600928,13.0473118 C47.7979657,12.8342767 47.8784456,11.8472143 47.9849632,11.6199769 C48.0891136,11.3903725 48.5128167,10.3843736 48.5506896,10.2636537 C48.6761436,9.88255766 48.8678751,8.96413986 48.69508,8.49546273 C48.5317531,8.05282323 48.2855793,6.99948322 48.1127842,6.73673998 C47.9636596,6.50713553 47.7387893,6.37221333 47.6322718,6.20651939 C47.5304884,6.05266074 47.3292886,5.91063737 47.1612276,5.8443598 C46.6404752,5.64079296 45.7173233,5.49876959 44.9172583,5.74257638 C44.5929716,5.83962568 44.102991,5.80885395 43.5514669,6.14260888 C43.1017262,6.41482034 42.9478676,7.16044304 42.8839571,7.56047554 C42.8531853,7.74747298 42.9076276,8.24692183 42.8957923,8.32503469 C42.88159,8.43865338 42.711162,9.17717492 42.711162,9.41388054 C42.7087949,9.53223335 42.7514019,10.0316822 42.6969596,10.360703 C42.628315,10.7844061 42.4223811,11.4732194 42.4223811,11.4732194 C42.3655717,11.7548991 42.2140802,12.3655996 42.206979,12.3845361 C42.0436521,12.8413779 41.9631722,13.2863845 41.9158311,13.6651135 C41.82825,14.361028 42.0010451,14.9409567 42.1549037,15.4546079 C42.2424848,15.75049 42.3253318,16.0274355 42.3608376,16.3067482 C42.3845082,16.5079479 42.2282825,17.4618716 42.2590542,17.7814242 C42.2685224,17.9116123 42.37504,18.3258471 42.3797741,18.3802894 C42.420014,18.6501338 42.4294823,19.3697189 42.4318493,19.4809705 C42.4342164,19.625361 42.5312657,20.2313273 42.5194304,20.8585972 C42.5146963,21.1047711 42.4886587,21.3604131 42.5194304,21.6184223 C42.5502021,21.8930008 42.5738727,22.5936494 42.5217975,22.9179361 C42.4389505,23.4126509 42.4720893,23.8552904 42.4697222,23.8765939 C42.4342164,24.3949792 42.4034446,24.9394021 42.4342164,25.4033451 C42.4389505,25.4767239 42.3490024,26.2625865 42.3466353,26.5063933 C42.3419012,26.660252 42.332433,27.6236438 42.3229647,27.7372625 C42.1170308,30.1350905 41.7927441,30.5942994 41.6625561,30.6818804 C41.532368,30.7670945 41.1796766,30.7623603 40.9784768,30.6676781 C40.8246182,30.5966664 40.4245857,30.2487092 40.0860966,30.0664458 C39.7547088,29.8912837 39.1369071,29.5977687 38.9262391,29.441543 C38.6824323,29.2569126 38.2823998,28.9468282 37.5036383,28.5207581 C37.3071727,28.4142406 37.1580481,28.2319773 36.9805189,28.0710175 C36.7225098,27.8437801 36.2396303,27.3561665 35.4585018,26.9608681 C35.0750387,26.7691365 34.7341826,26.5442662 34.4596041,26.2767889 C34.3459854,26.1631702 33.9270164,25.4625215 33.657172,25.1997783 C33.3944288,24.9488703 33.2287348,24.596179 33.1813937,24.4872944 C33.0441045,24.1937794 32.8949799,23.8647586 32.6061991,23.6493565 C32.1588254,23.3156016 31.1835983,23.2540581 30.5942013,23.5002319 C30.2178394,23.6564577 29.4674826,24.1606406 29.1408288,25.0340844 C28.811808,25.905161 29.0863865,27.0224116 29.737327,27.7467308 C30.1657641,28.222509 30.833274,28.4142406 31.4818474,28.5965039 C31.8818799,28.7101226 32.2629759,28.8190072 32.5564909,28.9823341 C32.7008813,29.062814 33.1624573,29.4084042 33.2595066,29.4723147 C33.4062641,29.569364 33.9293835,29.822639 34.0311669,29.8889166 C34.1258491,29.9528271 34.6773732,30.4333395 35.046634,30.6416405 C35.6573345,30.9824966 36.142581,31.2570751 36.4289948,31.4369714 C36.4289948,31.4369714 37.2692998,31.9103826 37.8137227,32.4264008 C37.9368096,32.5447537 38.459929,32.7388523 39.0327566,33.063139 C39.1771471,33.1459859 39.7760123,33.3471857 39.9275039,33.4134633 C40.0316543,33.4631715 40.4482562,33.7685217 40.5713432,33.8324322 C41.1086649,34.1117449 41.3785093,34.4454998 41.2270177,35.2763365 C41.1725754,35.5651174 41.0849943,35.8586323 41.1157661,36.2065896 C41.1252343,36.2918036 41.2483212,36.814923 41.4471539,37.1747156 C41.5465703,37.359346 41.702796,37.3546118 41.7903771,37.5250399 C41.8779582,37.700202 42.1856755,37.8469595 42.3892423,37.8990348 C42.5312657,38.036324 42.8247807,38.1830815 43.1680038,38.2422579 C43.9207277,38.3677119 44.8888537,37.8161878 45.02851,37.7877831 C45.2936203,37.7286067 45.7433609,37.7688467 45.9800666,37.8374913 C46.0274077,37.8469595 46.335125,38.0481593 46.4487437,38.0907663 C46.6002353,38.1475757 47.0854818,38.2801308 47.1848982,38.3156367 C47.3340227,38.3677119 48.0252031,38.7298715 48.2003653,38.7961491 C48.3802615,38.8647937 48.7968634,38.9405395 49.0027973,38.9878806 C49.3318181,39.2222192 49.9496198,39.423419 50.1863254,39.6269858 C50.4538028,39.8613244 50.8159624,40.4223167 50.8917082,40.521733 C51.0313645,40.7063634 51.7130767,41.1655723 51.810126,41.2389511 C52.0326292,41.4141132 52.5415463,41.7715387 52.8871365,41.8709551 C53.0528305,41.9182962 53.538077,41.8188798 53.833959,41.8212469 C54.1653469,41.8212469 54.6292899,41.8023104 54.9796142,41.2720898 C55.1547764,41.0046125 55.4482913,40.732401 55.5240371,40.3631403 C55.7512745,39.2103839 54.8896661,38.0670958 54.2363586,37.6599621 C54.170081,37.6197221 53.8528955,37.5274069 53.6587968,37.4634964 C53.3865854,37.3735483 53.1096398,37.1747156 52.9250094,37.1250074 C52.5581157,37.0279581 52.3782194,36.772316 52.2267279,36.6918361 C52.0776033,36.6137233 51.5710533,36.3012718 51.4077264,36.2113237 C51.2822724,36.1450461 51.0763385,35.8515312 50.7047107,35.7426466 C50.4538028,35.6669008 49.9306833,35.5177762 49.5140815,35.1508825 C49.3412864,34.9993909 48.6382707,34.8550005 48.4370709,34.8100264 C48.3613251,34.79109 47.4642108,34.412361 47.3742627,33.8868745 C47.2795804,33.3353504 47.3576933,33.1885929 47.2535428,32.3979962 C47.1896323,31.9056485 47.2227711,31.3257197 47.263011,31.0203695 M76.4890538,41.0992947 C76.4204092,40.7773751 76.2405129,39.9820442 75.9848709,39.5157341 C75.8736192,39.3098003 75.4309797,38.6564927 75.0948577,38.4055848 C74.768204,38.1641451 74.2947927,37.9250724 74.09596,37.8540607 C73.9113296,37.7877831 73.0071142,37.3664471 72.7633074,37.236259 C72.325402,36.9995534 72.0910634,36.7344431 71.861459,36.4811681 C71.7431062,36.348613 71.6271204,36.225526 71.4874641,36.1024391 C71.4330218,36.055098 70.6305898,35.7260772 70.3394418,35.0467321 C70.1619126,34.6348643 69.3618476,33.780357 69.2269254,33.5341831 C69.0280927,33.1791247 68.7345777,32.64417 68.4410628,32.3577562 C68.3534817,32.2725422 68.2587994,32.1423541 68.1593831,31.9908625 C68.0670679,31.8535732 67.9723856,31.6997146 67.8706022,31.5316536 C67.8421976,31.4866795 67.818527,31.4488066 67.7901223,31.4038326 C67.6007578,31.0913812 67.3877228,30.7363227 67.2646358,30.6061346 C66.9592856,30.2771138 66.7817564,29.8510437 66.637366,29.5030864 C66.5805566,29.3681642 66.0787407,28.6509462 65.8893762,28.1514974 C65.8065292,27.926627 65.3709909,27.1975737 65.3236498,27.0863221 C65.2313346,26.8519835 64.6703423,26.3075606 64.6159,26.2010431 C64.5354201,26.0377162 64.4620413,25.8152129 64.3862955,25.5832414 C64.3200179,25.3725734 64.1472228,24.9583386 64.0880464,24.7973787 C64.0146677,24.6766589 63.9199854,24.5228002 63.8205691,24.3594733 C63.815835,24.3523722 63.8134679,24.3476381 63.8087338,24.3429039 C63.7353551,24.2221841 63.6619763,24.1014642 63.5838635,23.9760102 C63.4087013,23.6919635 63.2311721,23.4126509 63.1151863,23.2327546 C63.0370735,23.1333382 62.9589606,23.0173525 62.890316,22.913202 C62.7790644,22.7498751 61.964797,21.3604131 61.7777996,21.0290253 C61.6949526,20.8775337 61.5931692,20.7260421 61.4890187,20.5674493 C61.2404778,20.1958215 60.9848358,19.8147255 60.8617488,19.3436813 C60.783636,19.0501663 60.5587657,18.5649198 60.5421963,18.5223128 C60.2226437,17.7364501 60.0995567,16.8914111 60.066418,16.6523384 C60.0167098,16.2617741 60.0285451,15.8664757 60.0451145,15.4877467 C60.0616839,15.078246 60.0758862,14.6900488 60.0096086,14.3468256 C59.8865217,13.7100875 59.6379808,13.0828176 59.30896,12.5810017 C59.2213789,12.4437125 58.9112945,12.0200094 58.5444008,11.6791533 C58.2769235,11.4306124 57.8390181,11.328829 57.036586,11.3217278 C55.9501072,11.3169937 55.4837972,11.7193933 54.9062355,12.5691664 C54.8115532,12.7064557 54.6269228,13.0638812 54.4020525,13.5443936 C54.1132716,14.1574611 53.876566,14.7184535 53.6706321,15.456975 C53.6067216,15.6794783 53.5167735,15.9256521 53.4339265,16.1647248 C53.3392443,16.425101 53.1356774,17.1588884 53.119108,17.2796083 C53.1001716,17.4003281 52.8445295,18.2548354 52.8279601,18.3376824 C52.7285438,18.8608018 52.5912545,19.3460483 52.4563323,19.8147255 C52.319043,20.2976049 52.188855,20.7544468 52.108375,21.2254909 C52.0302622,21.6775987 51.7888225,22.409019 51.6112932,22.9392396 C51.6112932,22.9392396 51.2704371,24.0209843 51.1615526,24.4068145 C51.012428,24.9299339 50.5248144,26.3738382 50.5248144,26.3738382 C50.3425511,26.8661859 49.9117469,28.0213093 49.8809752,28.2059397 C49.6253331,29.7066533 49.6277001,30.916219 49.8975446,31.4440725 C50.0182644,31.6855123 50.4324993,31.9151167 50.7662542,32.0997471 C50.8775058,32.1636576 51.4266629,32.518716 51.5450157,32.5494878 C51.8858718,32.641803 52.4563323,32.6702076 52.9368447,32.6204995 C53.0007552,32.6133983 53.5901522,32.6086642 53.8031873,32.4571726 C54.5961511,31.9056485 54.6529604,31.1931646 54.7571109,29.8983848 C54.7571109,29.8983848 54.8944002,28.5065558 54.9606778,27.9834364 C55.0080189,27.5976062 55.0600941,27.1975737 55.1003341,26.8022753 C55.1263717,26.5300639 55.140574,26.2318148 55.1524093,25.945401 C55.1737128,25.4270157 55.351242,24.4375862 55.351242,24.4375862 C55.5287712,23.8434551 55.6991993,23.2777287 56.3951138,22.9842137 C56.5844783,22.9061008 56.7998804,22.9203032 57.0034472,23.0339219 C57.4792255,23.2871969 57.9123968,24.0588572 58.0780908,24.9488703 C58.087559,24.9985785 58.1585707,25.1003619 58.2272153,25.1997783 C58.3929092,25.4293827 58.6177796,25.7465683 58.7337653,26.2673206 C58.7692712,26.3975087 59.0888238,26.8377812 59.2781883,27.1005244 C59.4722869,27.3680018 59.6521831,27.6189097 59.7587007,27.8082742 C59.7942065,27.8721847 60.5848033,29.105421 60.5848033,29.105421 C60.5848033,29.105421 60.8901535,29.7847661 61.0203416,30.0380411 C61.1505297,30.2960503 61.2641484,30.6037676 61.2759837,30.6558428 C61.3398942,30.9209531 61.4700823,31.4772113 61.7304585,31.7849286 C62.0855169,32.2038976 62.4713471,33.1459859 62.4902835,33.1862259 C62.5754975,33.3471857 62.807469,33.7472182 63.0228711,34.0999096 C63.0347064,34.1141119 63.0560099,34.1448836 63.0702123,34.1638201 L63.0702123,34.1661872 C63.0749464,34.1709213 63.0820476,34.1803895 63.0867817,34.1851236 C63.1814639,34.3105776 63.3045508,34.4762715 63.3992331,34.5898902 L64.0809453,35.3970564 C64.2206016,35.548548 64.3602579,35.7047737 64.4857119,35.8752017 C64.618267,36.0503639 64.8999467,36.4645987 65.1484876,36.8314924 C65.2999792,37.0610969 65.7378846,37.6315574 65.8728068,37.7735808 C66.005362,37.91087 66.9995256,39.2482568 67.1533842,39.4518236 C67.2172947,39.5346706 67.6244284,39.9489054 67.8706022,40.1974463 C67.8706022,40.1998134 67.8729693,40.1998134 67.8729693,40.2021804 C68.2138254,40.5454036 68.3392794,40.6708576 68.3842534,40.730034 C68.5830861,40.9975113 68.7984883,41.2578875 69.0067892,41.5111625 C69.2150901,41.7644375 69.4281252,42.0224467 69.631692,42.2946581 C69.7216402,42.4082768 69.9512446,42.8201446 70.0127881,42.9006245 C70.2281902,43.1846712 71.2815302,44.1575313 71.3123019,44.183569 C71.8022826,44.5883356 72.3443384,44.983634 73.1396693,45.0522786 C74.010746,45.1280244 74.938632,44.9623304 75.3978409,44.649879 C76.0558825,44.2072395 76.6121408,43.3077582 76.6405454,42.6473495 C76.6689501,42.0129784 76.621609,41.7549693 76.4890538,41.0992947" id="path19393"></path>
                    </g>
                </g>
            </g>
        </g>
    </g>
</svg>