<?xml version="1.0" encoding="UTF-8" standalone="no"?>
<svg width="150px" height="60px" viewBox="0 0 150 60" version="1.1" xmlns="http://www.w3.org/2000/svg" xmlns:xlink="http://www.w3.org/1999/xlink" xmlns:sketch="http://www.bohemiancoding.com/sketch/ns">
    <!-- Generator: Sketch 3.3.3 (12072) - http://www.bohemiancoding.com/sketch -->
    <title>setanta-sports</title>
    <desc>Created with Sketch.</desc>
    <defs></defs>
    <g id="Page-1" stroke="none" stroke-width="1" fill="none" fill-rule="evenodd" sketch:type="MSPage">
        <g id="Logos" sketch:type="MSArtboardGroup" transform="translate(-814.000000, -697.000000)">
            <g id="setanta-sports" sketch:type="MSLayerGroup" transform="translate(814.000000, 697.000000)">
                <g id="layer1" transform="translate(0.487800, 0.311132)" sketch:type="MSShapeGroup">
                    <g id="g2578" transform="translate(0.000003, 0.158568)">
                        <rect id="rect3429" fill="#10152E" x="0" y="0.0181049981" width="149.215782" height="58.5365763"></rect>
                        <rect id="rect2574" fill="#10152E" x="0.799816585" y="29.3113873" width="147.616149" height="28.4434773"></rect>
                        <rect id="rect2576" fill="#F8F8F8" x="0.799816585" y="0.817921584" width="147.616149" height="28.4934659"></rect>
                        <path d="M80.1816127,50.2565841 L76.8323807,50.2565841 L76.8323807,37.2595646 L86.9300651,37.2595646 C89.2295378,37.2595646 91.0791137,39.159129 91.0791137,41.4086131 C91.0791137,41.4586017 91.0791137,41.3086361 91.0791137,41.3086361 C91.0791137,43.6086521 89.3795034,44.7578451 88.7296524,45.0577763 C88.6796639,45.0577763 91.0291251,50.2565841 91.0291251,50.2565841 L87.3299734,50.2565841 L85.2304549,45.4576846 L81.5812917,45.4576846 L81.5812917,42.0584641 L87.1300193,42.0584641 C87.379962,42.0584641 87.7298817,41.7585329 87.7298817,41.3586246 C87.7298817,40.9587163 87.379962,40.6587851 87.1300193,40.6587851 L80.1816127,40.6587851 L80.1816127,50.2565841 L80.1816127,50.2565841 Z" id="path3280" fill="#F8F8F8"></path>
                        <path d="M33.4923195,21.6631412 L33.4923195,8.41617914 L45.739511,8.41617914 L45.739511,12.0653422 L37.1414827,12.0653422 L37.1414827,13.2150785 L41.4904854,13.2150785 L41.4904854,16.8642417 L37.1414827,16.8642417 L37.1414827,18.013978 L45.9894537,18.013978 L45.9894537,21.6631412 L33.4923195,21.6631412 L33.4923195,21.6631412 Z" id="path3595" fill="#10152E"></path>
                        <path d="M54.9873902,21.6631412 L54.9873902,12.0653422 L50.3884449,12.0653422 L50.3884449,8.41617914 L63.2354988,8.41617914 L63.2354988,12.0653422 L58.6365534,12.0653422 L58.6365534,21.6631412 L54.9873902,21.6631412 L54.9873902,21.6631412 Z" id="path3597" fill="#10152E"></path>
                        <path d="M106.275629,21.6631412 L106.275629,12.0653422 L101.676683,12.0653422 L101.676683,8.41617929 L114.523737,8.41617929 L114.523737,12.0653422 L109.924792,12.0653422 L109.924792,21.6631412 L106.275629,21.6631412 L106.275629,21.6631412 Z" id="path3599" fill="#10152E"></path>
                        <path d="M65.0350861,21.6631412 L70.8837449,8.41617914 L74.8828278,8.41617914 L80.7314866,21.6631412 L76.7324037,21.6631412 L72.8832863,13.0151244 L70.6338022,18.013978 L73.8830571,18.013978 L75.4826902,21.6631412 L65.0350861,21.6631412 L65.0350861,21.6631412 Z" id="path2442" fill="#10152E"></path>
                        <path d="M115.973405,21.6631412 L121.822064,8.41617979 L125.821147,8.41617979 L131.669805,21.6631412 L127.670722,21.6631412 L123.821605,13.0151244 L121.572121,18.013978 L124.821376,18.013978 L126.421009,21.6631412 L115.973405,21.6631412 L115.973405,21.6631412 Z" id="path3214" stroke="#10152E" stroke-width="0.5" fill="#10152E"></path>
                        <path d="M87.9298359,21.6631412 L84.2806727,21.6631412 L84.2806727,8.41617914 L87.9798244,8.41617914 L94.0784259,15.9144595 L94.0784259,8.41617914 L97.727589,8.41617914 L97.727589,21.6631412 L94.0284373,21.6631412 L87.9298359,14.1648607 L87.9298359,21.6631412 L87.9298359,21.6631412 Z" id="path3216" fill="#10152E"></path>
                        <path d="M105.675766,50.2565841 L102.326534,50.2565841 L102.326534,40.6587851 L96.3778985,40.6587851 L96.3778985,37.2595646 L111.624402,37.2595646 L111.624402,40.6587851 L105.675766,40.6587851 L105.675766,50.2565841 L105.675766,50.2565841 Z" id="path3218" fill="#F8F8F8"></path>
                        <path d="M63.9853268,50.2565841 L60.086221,50.2565841 C57.7867483,50.2565841 55.9371724,48.3570197 55.9371724,46.1075356 L55.9371724,41.4086131 C55.9371724,39.1091405 57.8367368,37.2595646 60.086221,37.2595646 L65.9848683,37.2595646 C68.6842493,37.2595646 70.1339168,39.5590373 70.1339168,40.6587851 L59.9362554,40.6587851 C59.6863127,40.6587851 59.3363929,41.0087048 59.3363929,41.2586475 L59.3363929,46.2575012 C59.3363929,46.5074439 59.6863127,46.8573636 59.9362554,46.8573636 C60.186198,46.8573636 66.1848224,46.8573641 66.234811,46.8573636 C66.4847537,46.8573636 66.8346734,46.5574324 66.8346734,46.2575012 L66.8346734,42.1084527 L70.2338939,42.1084527 L70.2338939,46.1075356 C70.2338939,48.4070083 68.3343295,50.2565841 66.0848454,50.2565841 L63.9853268,50.2565841 L63.9853268,50.2565841 Z" id="path2400" fill="#F8F8F8"></path>
                        <path d="M39.690898,50.2565841 L36.3416661,50.2565841 L36.3416661,37.2595646 L46.5893161,37.2595646 C48.9387773,37.2595646 50.7383646,39.1091405 50.7383646,41.4086131 C50.7383646,41.4586017 50.7383646,41.2586475 50.7383646,41.3086361 C50.7383646,43.6580973 48.8887888,45.4576846 46.5893161,45.4576846 L41.0905771,45.4576846 L41.0905771,42.0584641 L46.7892702,42.0584641 C47.0392129,42.0584641 47.3891327,41.7585329 47.3891327,41.3586246 C47.3891327,40.9587163 47.0392129,40.6587851 46.7892702,40.6587851 L39.690898,40.6587851 L39.690898,50.2565841 L39.690898,50.2565841 Z" id="path3246" fill="#F8F8F8"></path>
                        <path d="M25.7940849,50.2565841 L16.1962859,50.2565841 C16.1962859,49.1568363 17.6459534,46.8573636 20.3453344,46.8573636 L25.9440505,46.8573636 C26.1939932,46.8573636 26.5439129,46.5574324 26.5439129,46.1575241 C26.5439129,45.7576158 26.1939932,45.4576846 25.9440505,45.4576846 L20.2953459,45.4576846 C17.9958732,45.4576846 16.1462973,43.6081088 16.1462973,41.3086361 L16.1462973,41.4086131 C16.1462973,39.159129 17.9756893,37.2595646 20.2953459,37.2595646 L29.8931449,37.2595646 C29.8931449,38.3593124 28.4434773,40.6587851 25.7440963,40.6587851 L20.1453802,40.6587851 C19.8954376,40.6587851 19.5455178,40.9587163 19.5455178,41.3586246 C19.5455178,41.7585329 19.8954376,42.0584641 20.1453802,42.0584641 L25.7940849,42.0584641 C28.1435461,42.0584641 29.9431334,43.9580285 29.9431334,46.2075127 C29.9431334,46.2575012 29.9431334,46.0885959 29.9431334,46.1075356 C29.9431334,48.4070083 28.0712272,50.2565841 25.7940849,50.2565841 L25.7940849,50.2565841 Z" id="path2459" fill="#F8F8F8"></path>
                        <path d="M127.370791,50.2565841 L117.772992,50.2565841 C117.772992,49.1568363 119.22266,46.8573636 121.922041,46.8573636 L127.520757,46.8573636 C127.7707,46.8573636 128.120619,46.5574324 128.120619,46.1575241 C128.120619,45.7576158 127.7707,45.4576846 127.520757,45.4576846 L121.872052,45.4576846 C119.57258,45.4576846 117.723004,43.6081088 117.723004,41.3086361 L117.723004,41.4086131 C117.723004,39.159129 119.552394,37.2595646 121.872052,37.2595646 L131.469851,37.2595646 C131.469851,38.3593124 130.020184,40.6587851 127.320803,40.6587851 L121.722087,40.6587851 C121.472144,40.6587851 121.122224,40.9587163 121.122224,41.3586246 C121.122224,41.7585329 121.472144,42.0584641 121.722087,42.0584641 L127.370791,42.0584641 C129.720252,42.0584641 131.51984,43.9580285 131.51984,46.2075127 C131.51984,46.2575012 131.51984,46.0885959 131.51984,46.1075356 C131.51984,48.4070083 129.647934,50.2565841 127.370791,50.2565841 L127.370791,50.2565841 Z" id="path3355" fill="#F8F8F8"></path>
                        <path d="M15.9963317,21.6631412 C15.9963317,20.8133361 17.146068,18.013978 20.2953459,18.013978 L25.1942224,18.013978 C25.4941537,18.013978 25.7940849,17.8140239 25.7940849,17.4641041 L25.7940849,17.4141156 C25.7940849,17.0641958 25.4941537,16.8642417 25.1942224,16.8642417 L20.1453802,16.8642417 C18.0833681,16.8642417 15.9963317,14.9646773 15.9963317,12.7151931 L15.9963317,12.6652046 C15.9963317,10.3657319 17.8459076,8.41617914 20.1453802,8.41617914 L29.4932366,8.41617914 C29.4932366,9.26598412 28.3435002,12.0653422 25.1942224,12.0653422 L20.2953459,12.0653422 C19.9954146,12.0653422 19.6954834,12.2652963 19.6954834,12.6152161 L19.6954834,12.6652046 C19.6954834,13.0151244 19.9954146,13.2150785 20.2953459,13.2150785 L25.344188,13.2150785 C27.489948,13.2617258 29.4932366,15.1646314 29.4932366,17.4141156 L29.4932366,17.4641041 C29.4932366,19.7635768 27.5936722,21.6631412 25.344188,21.6631412 L15.9963317,21.6631412 L15.9963317,21.6631412 Z" id="path3433" fill="#10152E"></path>
                    </g>
                </g>
            </g>
        </g>
    </g>
</svg>