<?xml version="1.0" encoding="UTF-8" standalone="no"?>
<svg width="150px" height="60px" viewBox="0 0 150 60" version="1.1" xmlns="http://www.w3.org/2000/svg" xmlns:xlink="http://www.w3.org/1999/xlink" xmlns:sketch="http://www.bohemiancoding.com/sketch/ns">
    <!-- Generator: Sketch 3.3.3 (12072) - http://www.bohemiancoding.com/sketch -->
    <title>setanta-sports</title>
    <desc>Created with Sketch.</desc>
    <defs></defs>
    <g id="Page-1" stroke="none" stroke-width="1" fill="none" fill-rule="evenodd" sketch:type="MSPage">
        <g id="Logos" sketch:type="MSArtboardGroup" transform="translate(-814.000000, -697.000000)">
            <g id="setanta-sports" sketch:type="MSLayerGroup" transform="translate(833.000000, 705.000000)">
                <g id="layer1" transform="translate(0.365850, 0.233349)" sketch:type="MSShapeGroup">
                    <g id="g2578" transform="translate(0.000002, 0.118926)">
                        <rect id="rect3429" fill="#10152E" x="0" y="0.0135787486" width="111.911836" height="43.9024323"></rect>
                        <rect id="rect2574" fill="#10152E" x="0.599862439" y="21.9835405" width="110.712111" height="21.332608"></rect>
                        <rect id="rect2576" fill="#F8F8F8" x="0.599862439" y="0.613441188" width="110.712111" height="21.3700994"></rect>
                        <path d="M60.1362095,37.6924381 L57.6242855,37.6924381 L57.6242855,27.9446735 L65.1975488,27.9446735 C66.9221534,27.9446735 68.3093352,29.3693467 68.3093352,31.0564599 C68.3093352,31.0939513 68.3093352,30.9814771 68.3093352,30.9814771 C68.3093352,32.7064891 67.0346276,33.5683838 66.5472393,33.7933322 C66.5097479,33.7933322 68.2718438,37.6924381 68.2718438,37.6924381 L65.4974801,37.6924381 L63.9228412,34.0932635 L61.1859688,34.0932635 L61.1859688,31.5438481 L65.3475145,31.5438481 C65.5349715,31.5438481 65.7974113,31.3188997 65.7974113,31.0189685 C65.7974113,30.7190372 65.5349715,30.4940888 65.3475145,30.4940888 L60.1362095,30.4940888 L60.1362095,37.6924381 L60.1362095,37.6924381 Z" id="path3280" fill="#F8F8F8"></path>
                        <path d="M25.1192396,16.2473559 L25.1192396,6.31213436 L34.3046332,6.31213436 L34.3046332,9.04900662 L27.856112,9.04900662 L27.856112,9.91130888 L31.117864,9.91130888 L31.117864,12.6481813 L27.856112,12.6481813 L27.856112,13.5104835 L34.4920902,13.5104835 L34.4920902,16.2473559 L25.1192396,16.2473559 L25.1192396,16.2473559 Z" id="path3595" fill="#10152E"></path>
                        <path d="M41.2405427,16.2473559 L41.2405427,9.04900662 L37.7913337,9.04900662 L37.7913337,6.31213436 L47.4266241,6.31213436 L47.4266241,9.04900662 L43.9774151,9.04900662 L43.9774151,16.2473559 L41.2405427,16.2473559 L41.2405427,16.2473559 Z" id="path3597" fill="#10152E"></path>
                        <path d="M79.7067216,16.2473559 L79.7067216,9.04900662 L76.2575126,9.04900662 L76.2575126,6.31213447 L85.892803,6.31213447 L85.892803,9.04900662 L82.443594,9.04900662 L82.443594,16.2473559 L79.7067216,16.2473559 L79.7067216,16.2473559 Z" id="path3599" fill="#10152E"></path>
                        <path d="M48.7763146,16.2473559 L53.1628087,6.31213436 L56.1621209,6.31213436 L60.5486149,16.2473559 L57.5493027,16.2473559 L54.6624648,9.76134327 L52.9753516,13.5104835 L55.4122928,13.5104835 L56.6120177,16.2473559 L48.7763146,16.2473559 L48.7763146,16.2473559 Z" id="path2442" fill="#10152E"></path>
                        <path d="M86.9800537,16.2473559 L91.3665477,6.31213485 L94.3658599,6.31213485 L98.752354,16.2473559 L95.7530418,16.2473559 L92.8662038,9.76134327 L91.1790907,13.5104835 L93.6160319,13.5104835 L94.8157568,16.2473559 L86.9800537,16.2473559 L86.9800537,16.2473559 Z" id="path3214" stroke="#10152E" stroke-width="0.5" fill="#10152E"></path>
                        <path d="M65.9473769,16.2473559 L63.2105045,16.2473559 L63.2105045,6.31213436 L65.9848683,6.31213436 L70.5588194,11.9358446 L70.5588194,6.31213436 L73.2956918,6.31213436 L73.2956918,16.2473559 L70.521328,16.2473559 L65.9473769,10.6236455 L65.9473769,16.2473559 L65.9473769,16.2473559 Z" id="path3216" fill="#10152E"></path>
                        <path d="M79.2568248,37.6924381 L76.7449008,37.6924381 L76.7449008,30.4940888 L72.2834239,30.4940888 L72.2834239,27.9446735 L83.7183016,27.9446735 L83.7183016,30.4940888 L79.2568248,30.4940888 L79.2568248,37.6924381 L79.2568248,37.6924381 Z" id="path3218" fill="#F8F8F8"></path>
                        <path d="M47.9889951,37.6924381 L45.0646657,37.6924381 C43.3400612,37.6924381 41.9528793,36.2677648 41.9528793,34.5806517 L41.9528793,31.0564599 C41.9528793,29.3318553 43.3775526,27.9446735 45.0646657,27.9446735 L49.4886512,27.9446735 C51.513187,27.9446735 52.6004376,29.669278 52.6004376,30.4940888 L44.9521915,30.4940888 C44.7647345,30.4940888 44.5022947,30.7565286 44.5022947,30.9439856 L44.5022947,34.6931259 C44.5022947,34.8805829 44.7647345,35.1430227 44.9521915,35.1430227 C45.1396485,35.1430227 49.6386168,35.1430231 49.6761082,35.1430227 C49.8635652,35.1430227 50.1260051,34.9180743 50.1260051,34.6931259 L50.1260051,31.5813395 L52.6754204,31.5813395 L52.6754204,34.5806517 C52.6754204,36.3052562 51.2507471,37.6924381 49.563634,37.6924381 L47.9889951,37.6924381 L47.9889951,37.6924381 Z" id="path2400" fill="#F8F8F8"></path>
                        <path d="M29.7681735,37.6924381 L27.2562496,37.6924381 L27.2562496,27.9446735 L34.9419871,27.9446735 C36.704083,27.9446735 38.0537735,29.3318553 38.0537735,31.0564599 C38.0537735,31.0939513 38.0537735,30.9439856 38.0537735,30.9814771 C38.0537735,32.743573 36.6665916,34.0932635 34.9419871,34.0932635 L30.8179328,34.0932635 L30.8179328,31.5438481 L35.0919527,31.5438481 C35.2794097,31.5438481 35.5418495,31.3188997 35.5418495,31.0189685 C35.5418495,30.7190372 35.2794097,30.4940888 35.0919527,30.4940888 L29.7681735,30.4940888 L29.7681735,37.6924381 L29.7681735,37.6924381 Z" id="path3246" fill="#F8F8F8"></path>
                        <path d="M19.3455637,37.6924381 L12.1472144,37.6924381 C12.1472144,36.8676272 13.2344651,35.1430227 15.2590008,35.1430227 L19.4580379,35.1430227 C19.6454949,35.1430227 19.9079347,34.9180743 19.9079347,34.6181431 C19.9079347,34.3182119 19.6454949,34.0932635 19.4580379,34.0932635 L15.2215094,34.0932635 C13.4969049,34.0932635 12.109723,32.7060816 12.109723,30.9814771 L12.109723,31.0564599 C12.109723,29.3693467 13.481767,27.9446735 15.2215094,27.9446735 L22.4198587,27.9446735 C22.4198587,28.7694843 21.332608,30.4940888 19.3080723,30.4940888 L15.1090352,30.4940888 C14.9215782,30.4940888 14.6591384,30.7190372 14.6591384,31.0189685 C14.6591384,31.3188997 14.9215782,31.5438481 15.1090352,31.5438481 L19.3455637,31.5438481 C21.1076596,31.5438481 22.4573501,32.9685214 22.4573501,34.6556345 C22.4573501,34.6931259 22.4573501,34.5664469 22.4573501,34.5806517 C22.4573501,36.3052562 21.0534204,37.6924381 19.3455637,37.6924381 L19.3455637,37.6924381 Z" id="path2459" fill="#F8F8F8"></path>
                        <path d="M95.5280934,37.6924381 L88.3297441,37.6924381 C88.3297441,36.8676272 89.4169948,35.1430227 91.4415305,35.1430227 L95.6405676,35.1430227 C95.8280246,35.1430227 96.0904645,34.9180743 96.0904645,34.6181431 C96.0904645,34.3182119 95.8280246,34.0932635 95.6405676,34.0932635 L91.4040391,34.0932635 C89.6794346,34.0932635 88.2922527,32.7060816 88.2922527,30.9814771 L88.2922527,31.0564599 C88.2922527,29.3693467 89.6642956,27.9446735 91.4040391,27.9446735 L98.6023884,27.9446735 C98.6023884,28.7694843 97.5151377,30.4940888 95.490602,30.4940888 L91.2915649,30.4940888 C91.1041079,30.4940888 90.8416681,30.7190372 90.8416681,31.0189685 C90.8416681,31.3188997 91.1041079,31.5438481 91.2915649,31.5438481 L95.5280934,31.5438481 C97.2901893,31.5438481 98.6398798,32.9685214 98.6398798,34.6556345 C98.6398798,34.6931259 98.6398798,34.5664469 98.6398798,34.5806517 C98.6398798,36.3052562 97.2359505,37.6924381 95.5280934,37.6924381 L95.5280934,37.6924381 Z" id="path3355" fill="#F8F8F8"></path>
                        <path d="M11.9972488,16.2473559 C11.9972488,15.6100021 12.859551,13.5104835 15.2215094,13.5104835 L18.8956668,13.5104835 C19.1206152,13.5104835 19.3455637,13.3605179 19.3455637,13.0980781 L19.3455637,13.0605867 C19.3455637,12.7981469 19.1206152,12.6481813 18.8956668,12.6481813 L15.1090352,12.6481813 C13.5625261,12.6481813 11.9972488,11.223508 11.9972488,9.53639486 L11.9972488,9.49890345 C11.9972488,7.77429894 13.3844307,6.31213436 15.1090352,6.31213436 L22.1199274,6.31213436 C22.1199274,6.94948809 21.2576252,9.04900662 18.8956668,9.04900662 L15.2215094,9.04900662 C14.996561,9.04900662 14.7716126,9.19897223 14.7716126,9.46141205 L14.7716126,9.49890345 C14.7716126,9.76134327 14.996561,9.91130888 15.2215094,9.91130888 L19.008141,9.91130888 C20.617461,9.94629436 22.1199274,11.3734736 22.1199274,13.0605867 L22.1199274,13.0980781 C22.1199274,14.8226826 20.6952541,16.2473559 19.008141,16.2473559 L11.9972488,16.2473559 L11.9972488,16.2473559 Z" id="path3433" fill="#10152E"></path>
                    </g>
                </g>
            </g>
        </g>
    </g>
</svg>