<?xml version="1.0" encoding="UTF-8" standalone="no"?>
<svg width="61px" height="60px" viewBox="0 0 61 60" version="1.1" xmlns="http://www.w3.org/2000/svg" xmlns:xlink="http://www.w3.org/1999/xlink" xmlns:sketch="http://www.bohemiancoding.com/sketch/ns">
    <!-- Generator: Sketch 3.3.3 (12072) - http://www.bohemiancoding.com/sketch -->
    <title>tv3</title>
    <desc>Created with Sketch.</desc>
    <defs>
        <path id="path-1" d="M20.8557983,0.0025210084 L41.7115966,0.0025210084 C39.1522689,0.837478992 36.7971429,1.99008403 34.7778151,3.46941176 C30.0811765,7.00890756 27.1678992,12.3181513 27.0816807,19.5741176 L43.7082353,19.5741176 C43.7042017,19.4541176 43.7021849,19.3351261 43.7026891,19.2176471 C43.7188235,14.327395 47.5366387,11.882521 52.1989916,11.882521 C55.7854399,11.882521 60.1584909,13.3525896 60.2515966,17.1495191 L60.2515966,17.4210681 C60.1557322,22.0680837 55.5224072,22.8413445 51.845042,22.8413445 L46.6169748,22.8413445 L46.6169748,34.0815126 L51.845042,34.0815126 C55.914958,34.0815126 60.0715966,35.0571429 60.0715966,40.4480672 C60.0715966,45.4895798 56.8910924,47.3455462 51.845042,47.3455462 C48.7588235,47.3455462 46.1858824,46.6421849 44.5068908,44.6047059 C42.9065546,43.0910924 42.1104202,40.7652101 42.109916,37.7213445 C42.109916,37.5715966 42.1114286,37.4203361 42.1154622,37.2670588 L25.3119328,37.2670588 C25.2640336,37.7667227 25.2226891,38.4408403 25.2216807,39.2460504 C25.217658,44.6726741 27.0726115,56.0463166 41.3545891,59.9697479 L0,59.9697479 L0,0.0025210084 L20.8557983,0.0025210084 L20.8557983,0.0025210084 Z"></path>
    </defs>
    <g id="Page-1" stroke="none" stroke-width="1" fill="none" fill-rule="evenodd" sketch:type="MSPage">
        <g id="Logos" sketch:type="MSArtboardGroup" transform="translate(-186.000000, -698.000000)">
            <g id="tv3" sketch:type="MSLayerGroup" transform="translate(186.000000, 698.000000)">
                <g id="Group-6">
                    <mask id="mask-2" sketch:name="Clip 5" fill="white">
                        <use xlink:href="#path-1"></use>
                    </mask>
                    <use id="Clip-5" fill="#10152E" sketch:type="MSShapeGroup" xlink:href="#path-1"></use>
                    <path d="M0,0.0025210084 L60.2515966,0.0025210084 L60.2515966,59.9697479 L0,59.9697479 L0,0.0025210084 Z" id="Fill-4" sketch:type="MSShapeGroup" mask="url(#mask-2)"></path>
                </g>
            </g>
        </g>
    </g>
</svg>